RobotoSerifMicro-HairlineWideItalic.ufo
<glyph name="zero" format="2">
  <advance width="594"/>
  <unicode hex="0030"/>
  <outline>
    <contour>
      <point x="234" y="-11" type="curve" smooth="yes"/>
      <point x="442" y="-11"/>
      <point x="560" y="238"/>
      <point x="560" y="478" type="curve" smooth="yes"/>
      <point x="560" y="611"/>
      <point x="480" y="693"/>
      <point x="360" y="693" type="curve" smooth="yes"/>
      <point x="152" y="693"/>
      <point x="34" y="444"/>
      <point x="34" y="204" type="curve" smooth="yes"/>
      <point x="34" y="71"/>
      <point x="114" y="-11"/>
    </contour>
    <contour>
      <point x="240" y="28" type="curve" smooth="yes"/>
      <point x="135" y="28"/>
      <point x="85" y="91"/>
      <point x="85" y="196" type="curve" smooth="yes"/>
      <point x="85" y="250"/>
      <point x="90" y="310"/>
      <point x="108" y="373" type="curve" smooth="yes"/>
      <point x="157" y="558"/>
      <point x="239" y="655"/>
      <point x="354" y="655" type="curve" smooth="yes"/>
      <point x="458" y="655"/>
      <point x="509" y="591"/>
      <point x="509" y="486" type="curve" smooth="yes"/>
      <point x="509" y="433"/>
      <point x="503" y="373"/>
      <point x="485" y="309" type="curve" smooth="yes"/>
      <point x="436" y="124"/>
      <point x="355" y="28"/>
    </contour>
  </outline>
</glyph>
<glyph name="four" format="2">
  <advance width="594"/>
  <unicode hex="0034"/>
  <outline>
    <contour>
      <point x="13" y="165" type="line"/>
      <point x="529" y="165" type="line"/>
      <point x="541" y="206" type="line"/>
      <point x="55" y="206" type="line"/>
      <point x="50" y="187" type="line"/>
      <point x="499" y="671" type="line"/>
      <point x="493" y="675" type="line"/>
      <point x="454" y="675" type="line"/>
      <point x="28" y="218" type="line"/>
    </contour>
    <contour>
      <point x="346" y="-40" type="line"/>
      <point x="536" y="675" type="line"/>
      <point x="471" y="675" type="line"/>
      <point x="484" y="663" type="line"/>
      <point x="297" y="-40" type="line"/>
    </contour>
  </outline>
</glyph>
<glyph name="six" format="2">
  <advance width="593"/>
  <unicode hex="0036"/>
  <outline>
    <contour>
      <point x="248" y="-10" type="curve" smooth="yes"/>
      <point x="419" y="-10"/>
      <point x="511" y="164"/>
      <point x="511" y="298" type="curve" smooth="yes"/>
      <point x="511" y="404"/>
      <point x="446" y="468"/>
      <point x="336" y="468" type="curve" smooth="yes"/>
      <point x="243" y="468"/>
      <point x="162" y="402"/>
      <point x="78" y="278" type="curve"/>
      <point x="72" y="234" type="line"/>
      <point x="173" y="362"/>
      <point x="227" y="428"/>
      <point x="325" y="428" type="curve" smooth="yes"/>
      <point x="419" y="428"/>
      <point x="458" y="376"/>
      <point x="458" y="300" type="curve" smooth="yes"/>
      <point x="458" y="261"/>
      <point x="449" y="213"/>
      <point x="430" y="168" type="curve" smooth="yes"/>
      <point x="399" y="96"/>
      <point x="340" y="31"/>
      <point x="251" y="31" type="curve" smooth="yes"/>
      <point x="153" y="31"/>
      <point x="87" y="80"/>
      <point x="87" y="217" type="curve" smooth="yes"/>
      <point x="87" y="290"/>
      <point x="98" y="354"/>
      <point x="118" y="412" type="curve" smooth="yes"/>
      <point x="178" y="585"/>
      <point x="322" y="704"/>
      <point x="562" y="701" type="curve"/>
      <point x="563" y="740" type="line"/>
      <point x="188" y="744"/>
      <point x="36" y="471"/>
      <point x="36" y="213" type="curve" smooth="yes"/>
      <point x="36" y="65"/>
      <point x="111" y="-10"/>
    </contour>
  </outline>
</glyph>
<glyph name="seven" format="2">
  <advance width="594"/>
  <unicode hex="0037"/>
  <outline>
    <contour>
      <point x="315" y="639" type="line" smooth="yes"/>
      <point x="224" y="639"/>
      <point x="185" y="632"/>
      <point x="172" y="596" type="curve" smooth="yes"/>
      <point x="131" y="475" type="line"/>
      <point x="84" y="475" type="line"/>
      <point x="137" y="675" type="line"/>
      <point x="628" y="675" type="line"/>
      <point x="614" y="633" type="line"/>
      <point x="432" y="479"/>
      <point x="271" y="272"/>
      <point x="189" y="-37" type="curve"/>
      <point x="129" y="-37" type="line"/>
      <point x="223" y="295"/>
      <point x="426" y="513"/>
      <point x="594" y="658" type="curve"/>
      <point x="597" y="639" type="line"/>
    </contour>
  </outline>
</glyph>
<glyph name="nine" format="2">
  <advance width="594"/>
  <unicode hex="0039"/>
  <outline>
    <contour>
      <point x="337" y="693" type="curve" smooth="yes"/>
      <point x="473" y="693"/>
      <point x="549" y="628"/>
      <point x="549" y="471" type="curve" smooth="yes"/>
      <point x="549" y="200"/>
      <point x="420" y="-58"/>
      <point x="41" y="-57" type="curve"/>
      <point x="42" y="-18" type="line"/>
      <point x="302" y="-22"/>
      <point x="436" y="102"/>
      <point x="481" y="297" type="curve" smooth="yes"/>
      <point x="493" y="349"/>
      <point x="499" y="407"/>
      <point x="499" y="468" type="curve" smooth="yes"/>
      <point x="499" y="611"/>
      <point x="432" y="653"/>
      <point x="334" y="653" type="curve" smooth="yes"/>
      <point x="232" y="653"/>
      <point x="175" y="585"/>
      <point x="148" y="508" type="curve" smooth="yes"/>
      <point x="135" y="469"/>
      <point x="129" y="427"/>
      <point x="129" y="390" type="curve" smooth="yes"/>
      <point x="129" y="314"/>
      <point x="171" y="263"/>
      <point x="270" y="263" type="curve" smooth="yes"/>
      <point x="367" y="263"/>
      <point x="419" y="324"/>
      <point x="511" y="453" type="curve"/>
      <point x="506" y="411" type="line"/>
      <point x="433" y="287"/>
      <point x="351" y="223"/>
      <point x="259" y="223" type="curve" smooth="yes"/>
      <point x="144" y="223"/>
      <point x="75" y="286"/>
      <point x="75" y="393" type="curve" smooth="yes"/>
      <point x="75" y="537"/>
      <point x="158" y="693"/>
    </contour>
  </outline>
</glyph>
<glyph name="d" format="2">
  <advance width="683"/>
  <unicode hex="0064"/>
  <anchor x="631" y="735" name="right"/>
  <anchor x="321" y="0" name="bottom"/>
  <outline>
    <contour>
      <point x="230" y="-10" type="curve" smooth="yes"/>
      <point x="316" y="-10"/>
      <point x="395" y="46"/>
      <point x="478" y="130" type="curve"/>
      <point x="484" y="174" type="line"/>
      <point x="405" y="100"/>
      <point x="322" y="30"/>
      <point x="230" y="30" type="curve" smooth="yes"/>
      <point x="153" y="30"/>
      <point x="102" y="82"/>
      <point x="102" y="194" type="curve" smooth="yes"/>
      <point x="102" y="325"/>
      <point x="160" y="538"/>
      <point x="338" y="538" type="curve" smooth="yes"/>
      <point x="444" y="538"/>
      <point x="506" y="461"/>
      <point x="532" y="364" type="curve"/>
      <point x="551" y="396" type="line"/>
      <point x="520" y="515"/>
      <point x="446" y="578"/>
      <point x="341" y="578" type="curve" smooth="yes"/>
      <point x="138" y="578"/>
      <point x="46" y="359"/>
      <point x="46" y="194" type="curve" smooth="yes"/>
      <point x="46" y="62"/>
      <point x="114" y="-10"/>
    </contour>
    <contour>
      <point x="530" y="0" type="curve" smooth="yes"/>
      <point x="558" y="0"/>
      <point x="585" y="0"/>
      <point x="613" y="0" type="curve"/>
      <point x="621" y="40" type="line"/>
      <point x="593" y="40"/>
      <point x="566" y="40"/>
      <point x="538" y="40" type="curve" smooth="yes"/>
      <point x="516" y="40"/>
      <point x="505" y="46"/>
      <point x="505" y="66" type="curve" smooth="yes"/>
      <point x="505" y="80"/>
      <point x="513" y="131"/>
      <point x="544" y="247" type="curve" smooth="yes"/>
      <point x="684" y="780" type="line"/>
      <point x="536" y="780" type="line"/>
      <point x="527" y="744" type="line"/>
      <point x="537" y="742" type="line" smooth="yes"/>
      <point x="591" y="731"/>
      <point x="617" y="721"/>
      <point x="612" y="705" type="curve" smooth="yes"/>
      <point x="469" y="152" type="line"/>
      <point x="464" y="141" type="line"/>
      <point x="460" y="98"/>
      <point x="456" y="62"/>
      <point x="456" y="52" type="curve" smooth="yes"/>
      <point x="456" y="16"/>
      <point x="487" y="0"/>
    </contour>
  </outline>
</glyph>
<glyph name="j" format="2">
  <advance width="333"/>
  <unicode hex="006A"/>
  <outline>
    <contour>
      <point x="65" y="-89" type="line" smooth="yes"/>
      <point x="44" y="-184"/>
      <point x="13" y="-209"/>
      <point x="-53" y="-209" type="curve" smooth="yes"/>
      <point x="-95" y="-209"/>
      <point x="-139" y="-194"/>
      <point x="-158" y="-188" type="curve"/>
      <point x="-172" y="-227" type="line"/>
      <point x="-154" y="-235"/>
      <point x="-104" y="-250"/>
      <point x="-52" y="-250" type="curve" smooth="yes"/>
      <point x="38" y="-250"/>
      <point x="89" y="-203"/>
      <point x="112" y="-100" type="curve" smooth="yes"/>
      <point x="258" y="565" type="line"/>
      <point x="101" y="565" type="line"/>
      <point x="91" y="521" type="line"/>
      <point x="105" y="519" type="line" smooth="yes"/>
      <point x="161" y="512"/>
      <point x="195" y="507"/>
      <point x="188" y="474" type="curve" smooth="yes"/>
    </contour>
    <contour>
      <point x="252" y="699" type="curve" smooth="yes"/>
      <point x="284" y="699"/>
      <point x="310" y="712"/>
      <point x="310" y="751" type="curve" smooth="yes"/>
      <point x="310" y="790"/>
      <point x="284" y="804"/>
      <point x="252" y="804" type="curve" smooth="yes"/>
      <point x="218" y="804"/>
      <point x="194" y="790"/>
      <point x="194" y="751" type="curve" smooth="yes"/>
      <point x="194" y="712"/>
      <point x="218" y="699"/>
    </contour>
  </outline>
</glyph>
<glyph name="dieresis" format="2">
  <advance width="530"/>
  <unicode hex="00A8"/>
  <anchor x="265" y="526" name="_top"/>
  <outline>
    <contour>
      <point x="141" y="699" type="curve" smooth="yes"/>
      <point x="173" y="699"/>
      <point x="199" y="712"/>
      <point x="199" y="751" type="curve" smooth="yes"/>
      <point x="199" y="790"/>
      <point x="173" y="804"/>
      <point x="141" y="804" type="curve" smooth="yes"/>
      <point x="106" y="804"/>
      <point x="82" y="790"/>
      <point x="82" y="751" type="curve" smooth="yes"/>
      <point x="82" y="712"/>
      <point x="106" y="699"/>
    </contour>
    <contour>
      <point x="390" y="699" type="curve" smooth="yes"/>
      <point x="421" y="699"/>
      <point x="447" y="712"/>
      <point x="447" y="751" type="curve" smooth="yes"/>
      <point x="447" y="790"/>
      <point x="421" y="804"/>
      <point x="390" y="804" type="curve" smooth="yes"/>
      <point x="355" y="804"/>
      <point x="331" y="790"/>
      <point x="331" y="751" type="curve" smooth="yes"/>
      <point x="331" y="712"/>
      <point x="355" y="699"/>
    </contour>
  </outline>
</glyph>
<glyph name="degree" format="2">
  <advance width="521"/>
  <unicode hex="00B0"/>
  <outline>
    <contour>
      <point x="258" y="426" type="curve" smooth="yes"/>
      <point x="178" y="426"/>
      <point x="124" y="473"/>
      <point x="124" y="561" type="curve" smooth="yes"/>
      <point x="124" y="650"/>
      <point x="178" y="698"/>
      <point x="258" y="698" type="curve" smooth="yes"/>
      <point x="339" y="698"/>
      <point x="392" y="650"/>
      <point x="392" y="561" type="curve" smooth="yes"/>
      <point x="392" y="473"/>
      <point x="339" y="426"/>
    </contour>
    <contour>
      <point x="258" y="389" type="curve" smooth="yes"/>
      <point x="364" y="389"/>
      <point x="446" y="455"/>
      <point x="446" y="561" type="curve" smooth="yes"/>
      <point x="446" y="668"/>
      <point x="364" y="735"/>
      <point x="258" y="735" type="curve" smooth="yes"/>
      <point x="153" y="735"/>
      <point x="70" y="668"/>
      <point x="70" y="561" type="curve" smooth="yes"/>
      <point x="70" y="455"/>
      <point x="153" y="389"/>
    </contour>
  </outline>
</glyph>
<glyph name="Thorn" format="2">
  <advance width="697"/>
  <unicode hex="00DE"/>
  <outline>
    <contour>
      <point x="265" y="544" type="line"/>
      <point x="422" y="544" type="line" smooth="yes"/>
      <point x="537" y="544"/>
      <point x="595" y="475"/>
      <point x="595" y="392" type="curve" smooth="yes"/>
      <point x="595" y="266"/>
      <point x="518" y="184"/>
      <point x="376" y="184" type="curve" smooth="yes"/>
      <point x="146" y="184" type="line"/>
      <point x="136" y="148" type="line"/>
      <point x="371" y="148" type="line" smooth="yes"/>
      <point x="537" y="148"/>
      <point x="649" y="246"/>
      <point x="649" y="391" type="curve" smooth="yes"/>
      <point x="649" y="493"/>
      <point x="570" y="582"/>
      <point x="421" y="582" type="curve" smooth="yes"/>
      <point x="259" y="582" type="line"/>
    </contour>
    <contour>
      <point x="99" y="80" type="line" smooth="yes"/>
      <point x="91" y="51"/>
      <point x="51" y="44"/>
      <point x="-1" y="44" type="curve" smooth="yes"/>
      <point x="-13" y="44" type="line"/>
      <point x="-25" y="0" type="line"/>
      <point x="246" y="0" type="line"/>
      <point x="258" y="44" type="line"/>
      <point x="242" y="44" type="line" smooth="yes"/>
      <point x="191" y="44"/>
      <point x="142" y="47"/>
      <point x="144" y="54" type="curve" smooth="yes"/>
      <point x="302" y="656" type="line" smooth="yes"/>
      <point x="304" y="663"/>
      <point x="356" y="666"/>
      <point x="396" y="666" type="curve" smooth="yes"/>
      <point x="406" y="666" type="line"/>
      <point x="418" y="710" type="line"/>
      <point x="164" y="710" type="line"/>
      <point x="152" y="666" type="line"/>
      <point x="163" y="666" type="line" smooth="yes"/>
      <point x="215" y="666"/>
      <point x="251" y="659"/>
      <point x="244" y="630" type="curve" smooth="yes"/>
    </contour>
  </outline>
</glyph>
<glyph name="ae" format="2">
  <advance width="982"/>
  <unicode hex="00E6"/>
  <anchor x="498" y="565" name="top"/>
  <outline>
    <contour>
      <point x="684" y="-12" type="curve" smooth="yes"/>
      <point x="796" y="-12"/>
      <point x="874" y="46"/>
      <point x="918" y="106" type="curve"/>
      <point x="884" y="130" type="line"/>
      <point x="842" y="78"/>
      <point x="794" y="29"/>
      <point x="684" y="29" type="curve" smooth="yes"/>
      <point x="588" y="29"/>
      <point x="512" y="78"/>
      <point x="512" y="207" type="curve" smooth="yes"/>
      <point x="512" y="378"/>
      <point x="609" y="534"/>
      <point x="776" y="534" type="curve" smooth="yes"/>
      <point x="850" y="534"/>
      <point x="891" y="508"/>
      <point x="891" y="439" type="curve" smooth="yes"/>
      <point x="891" y="333"/>
      <point x="784" y="268"/>
      <point x="499" y="255" type="curve"/>
      <point x="497" y="225" type="line"/>
      <point x="792" y="234"/>
      <point x="945" y="315"/>
      <point x="945" y="441" type="curve" smooth="yes"/>
      <point x="945" y="522"/>
      <point x="889" y="575"/>
      <point x="775" y="575" type="curve" smooth="yes"/>
      <point x="676" y="575"/>
      <point x="585" y="520"/>
      <point x="537" y="434" type="curve"/>
      <point x="483" y="378"/>
      <point x="458" y="299"/>
      <point x="458" y="210" type="curve" smooth="yes"/>
      <point x="458" y="71"/>
      <point x="548" y="-12"/>
    </contour>
    <contour>
      <point x="474" y="324" type="line"/>
      <point x="553" y="420" type="line"/>
      <point x="553" y="467" type="line" smooth="yes"/>
      <point x="553" y="541"/>
      <point x="484" y="576"/>
      <point x="370" y="576" type="curve" smooth="yes"/>
      <point x="285" y="576"/>
      <point x="208" y="552"/>
      <point x="179" y="541" type="curve"/>
      <point x="142" y="402" type="line"/>
      <point x="197" y="402" type="line"/>
      <point x="233" y="535" type="line"/>
      <point x="226" y="532"/>
      <point x="188" y="530"/>
      <point x="207" y="518" type="curve"/>
      <point x="242" y="529"/>
      <point x="291" y="538"/>
      <point x="366" y="538" type="curve" smooth="yes"/>
      <point x="464" y="538"/>
      <point x="507" y="507"/>
      <point x="507" y="454" type="curve" smooth="yes"/>
      <point x="507" y="444"/>
      <point x="505" y="428"/>
      <point x="500" y="415" type="curve"/>
    </contour>
    <contour>
      <point x="230" y="-14" type="curve" smooth="yes"/>
      <point x="330" y="-14"/>
      <point x="397" y="30"/>
      <point x="499" y="165" type="curve"/>
      <point x="475" y="190" type="line"/>
      <point x="388" y="74"/>
      <point x="326" y="25"/>
      <point x="229" y="25" type="curve" smooth="yes"/>
      <point x="147" y="25"/>
      <point x="108" y="68"/>
      <point x="108" y="139" type="curve" smooth="yes"/>
      <point x="108" y="237"/>
      <point x="180" y="285"/>
      <point x="484" y="300" type="curve"/>
      <point x="493" y="333" type="line"/>
      <point x="137" y="322"/>
      <point x="56" y="250"/>
      <point x="56" y="140" type="curve" smooth="yes"/>
      <point x="56" y="40"/>
      <point x="113" y="-14"/>
    </contour>
  </outline>
</glyph>
<glyph name="eth" format="2">
  <advance width="659"/>
  <unicode hex="00F0"/>
  <outline>
    <contour>
      <point x="284" y="-13" type="curve" smooth="yes"/>
      <point x="549" y="-13"/>
      <point x="612" y="310"/>
      <point x="612" y="478" type="curve" smooth="yes"/>
      <point x="612" y="653"/>
      <point x="524" y="735"/>
      <point x="361" y="813" type="curve"/>
      <point x="330" y="782" type="line"/>
      <point x="489" y="702"/>
      <point x="557" y="624"/>
      <point x="557" y="481" type="curve" smooth="yes"/>
      <point x="557" y="426"/>
      <point x="555" y="377"/>
      <point x="536" y="293" type="curve" smooth="yes"/>
      <point x="495" y="119"/>
      <point x="409" y="28"/>
      <point x="283" y="28" type="curve" smooth="yes"/>
      <point x="157" y="28"/>
      <point x="102" y="97"/>
      <point x="102" y="208" type="curve" smooth="yes"/>
      <point x="102" y="239"/>
      <point x="102" y="264"/>
      <point x="114" y="311" type="curve" smooth="yes"/>
      <point x="148" y="448"/>
      <point x="235" y="516"/>
      <point x="353" y="516" type="curve" smooth="yes"/>
      <point x="473" y="516"/>
      <point x="523" y="450"/>
      <point x="567" y="349" type="curve"/>
      <point x="569" y="404" type="line"/>
      <point x="543" y="483"/>
      <point x="474" y="554"/>
      <point x="352" y="554" type="curve" smooth="yes"/>
      <point x="147" y="554"/>
      <point x="46" y="377"/>
      <point x="46" y="204" type="curve" smooth="yes"/>
      <point x="46" y="71"/>
      <point x="128" y="-13"/>
    </contour>
    <contour>
      <point x="238" y="655" type="line"/>
      <point x="243" y="619" type="line"/>
      <point x="705" y="705" type="line"/>
      <point x="699" y="741" type="line"/>
    </contour>
  </outline>
</glyph>
<glyph name="ibreve" format="2">
  <advance width="350"/>
  <unicode hex="012D"/>
  <outline>
    <contour>
      <point x="230" y="675" type="curve" smooth="yes"/>
      <point x="126" y="675"/>
      <point x="96" y="712"/>
      <point x="96" y="776" type="curve" smooth="yes"/>
      <point x="96" y="790"/>
      <point x="97" y="805"/>
      <point x="101" y="824" type="curve"/>
      <point x="147" y="824" type="line"/>
      <point x="143" y="751"/>
      <point x="151" y="722"/>
      <point x="231" y="722" type="curve" smooth="yes"/>
      <point x="295" y="722"/>
      <point x="313" y="742"/>
      <point x="334" y="824" type="curve"/>
      <point x="379" y="824" type="line"/>
      <point x="366" y="723"/>
      <point x="322" y="675"/>
    </contour>
    <component base="dotlessi"/>
  </outline>
</glyph>
<glyph name="Schwa" format="2">
  <advance width="786"/>
  <unicode hex="018F"/>
  <outline>
    <contour>
      <point x="339" y="-25" type="curve" smooth="yes"/>
      <point x="604" y="-25"/>
      <point x="725" y="229"/>
      <point x="725" y="449" type="curve" smooth="yes"/>
      <point x="725" y="637"/>
      <point x="629" y="731"/>
      <point x="441" y="731" type="curve" smooth="yes"/>
      <point x="308" y="731"/>
      <point x="213" y="684"/>
      <point x="135" y="605" type="curve"/>
      <point x="173" y="573" type="line"/>
      <point x="239" y="642"/>
      <point x="314" y="690"/>
      <point x="441" y="690" type="curve" smooth="yes"/>
      <point x="598" y="690"/>
      <point x="670" y="613"/>
      <point x="670" y="445" type="curve" smooth="yes"/>
      <point x="670" y="255"/>
      <point x="581" y="14"/>
      <point x="338" y="14" type="curve" smooth="yes"/>
      <point x="168" y="14"/>
      <point x="116" y="112"/>
      <point x="116" y="234" type="curve" smooth="yes"/>
      <point x="116" y="263"/>
      <point x="121" y="300"/>
      <point x="131" y="338" type="curve"/>
      <point x="107" y="333" type="line"/>
      <point x="660" y="333" type="line"/>
      <point x="673" y="370" type="line"/>
      <point x="83" y="370" type="line"/>
      <point x="68" y="318"/>
      <point x="61" y="269"/>
      <point x="61" y="226" type="curve" smooth="yes"/>
      <point x="61" y="79"/>
      <point x="140" y="-25"/>
    </contour>
  </outline>
</glyph>
<glyph name="Ohorn" format="2">
  <advance width="870"/>
  <unicode hex="01A0"/>
  <anchor x="436" y="742" name="top"/>
  <outline>
    <contour>
      <point x="359" y="16" type="curve" smooth="yes"/>
      <point x="207" y="16"/>
      <point x="116" y="84"/>
      <point x="116" y="244" type="curve" smooth="yes"/>
      <point x="116" y="331"/>
      <point x="133" y="425"/>
      <point x="170" y="506" type="curve" smooth="yes"/>
      <point x="225" y="600"/>
      <point x="327" y="694"/>
      <point x="489" y="694" type="curve" smooth="yes"/>
      <point x="641" y="694"/>
      <point x="732" y="626"/>
      <point x="732" y="466" type="curve" smooth="yes"/>
      <point x="732" y="379"/>
      <point x="715" y="285"/>
      <point x="678" y="204" type="curve" smooth="yes"/>
      <point x="624" y="110"/>
      <point x="521" y="16"/>
    </contour>
    <contour>
      <point x="354" y="-25" type="curve" smooth="yes"/>
      <point x="660" y="-25"/>
      <point x="787" y="254"/>
      <point x="787" y="475" type="curve" smooth="yes"/>
      <point x="787" y="585"/>
      <point x="721" y="672"/>
      <point x="614" y="704" type="curve"/>
      <point x="658" y="652" type="line"/>
      <point x="673" y="701" type="line"/>
      <point x="593" y="714" type="line"/>
      <point x="689" y="677"/>
      <point x="720" y="648"/>
      <point x="781" y="648" type="curve" smooth="yes"/>
      <point x="831" y="648"/>
      <point x="920" y="667"/>
      <point x="970" y="899" type="curve"/>
      <point x="915" y="899" type="line"/>
      <point x="873" y="724"/>
      <point x="828" y="680"/>
      <point x="775" y="680" type="curve" smooth="yes"/>
      <point x="705" y="680"/>
      <point x="647" y="735"/>
      <point x="493" y="735" type="curve" smooth="yes"/>
      <point x="188" y="735"/>
      <point x="61" y="456"/>
      <point x="61" y="238" type="curve" smooth="yes"/>
      <point x="61" y="59"/>
      <point x="181" y="-25"/>
    </contour>
  </outline>
</glyph>
<glyph name="Uhorn" format="2">
  <advance width="925"/>
  <unicode hex="01AF"/>
  <anchor x="473" y="663" name="top"/>
  <outline>
    <contour>
      <point x="366" y="-25" type="curve" smooth="yes"/>
      <point x="515" y="-25"/>
      <point x="608" y="44"/>
      <point x="655" y="214" type="curve" smooth="yes"/>
      <point x="761" y="621" type="line" smooth="yes"/>
      <point x="770" y="657"/>
      <point x="804" y="660"/>
      <point x="842" y="668" type="curve" smooth="yes"/>
      <point x="924" y="684"/>
      <point x="998" y="696"/>
      <point x="1053" y="899" type="curve"/>
      <point x="998" y="899" type="line"/>
      <point x="959" y="774"/>
      <point x="943" y="710"/>
      <point x="817" y="710" type="curve" smooth="yes"/>
      <point x="641" y="710" type="line"/>
      <point x="629" y="666" type="line"/>
      <point x="638" y="666" type="line" smooth="yes"/>
      <point x="679" y="666"/>
      <point x="728" y="659"/>
      <point x="725" y="647" type="curve" smooth="yes"/>
      <point x="615" y="221" type="line" smooth="yes"/>
      <point x="576" y="73"/>
      <point x="510" y="15"/>
      <point x="367" y="15" type="curve" smooth="yes"/>
      <point x="246" y="15"/>
      <point x="174" y="54"/>
      <point x="174" y="171" type="curve" smooth="yes"/>
      <point x="174" y="207"/>
      <point x="179" y="245"/>
      <point x="200" y="321" type="curve" smooth="yes"/>
      <point x="286" y="656" type="line" smooth="yes"/>
      <point x="288" y="663"/>
      <point x="341" y="666"/>
      <point x="381" y="666" type="curve" smooth="yes"/>
      <point x="390" y="666" type="line"/>
      <point x="403" y="710" type="line"/>
      <point x="150" y="710" type="line"/>
      <point x="137" y="666" type="line"/>
      <point x="149" y="666" type="line" smooth="yes"/>
      <point x="201" y="666"/>
      <point x="237" y="659"/>
      <point x="229" y="630" type="curve" smooth="yes"/>
      <point x="151" y="324" type="line" smooth="yes"/>
      <point x="130" y="245"/>
      <point x="125" y="200"/>
      <point x="125" y="168" type="curve" smooth="yes"/>
      <point x="125" y="39"/>
      <point x="205" y="-25"/>
    </contour>
  </outline>
</glyph>
<glyph name="icaron" format="2">
  <advance width="348"/>
  <unicode hex="01D0"/>
  <outline>
    <contour>
      <point x="196" y="672" type="line"/>
      <point x="116" y="823" type="line"/>
      <point x="121" y="844" type="line"/>
      <point x="140" y="844" type="line"/>
      <point x="247" y="717" type="line"/>
      <point x="221" y="709" type="line"/>
      <point x="387" y="844" type="line"/>
      <point x="412" y="844" type="line"/>
      <point x="407" y="823" type="line"/>
      <point x="257" y="672" type="line"/>
    </contour>
    <component base="dotlessi"/>
  </outline>
</glyph>
<glyph name="Oogonek" format="2">
  <advance width="813"/>
  <unicode hex="01EA"/>
  <outline>
    <contour>
      <point x="359" y="16" type="curve" smooth="yes"/>
      <point x="207" y="16"/>
      <point x="116" y="84"/>
      <point x="116" y="244" type="curve" smooth="yes"/>
      <point x="116" y="331"/>
      <point x="133" y="425"/>
      <point x="170" y="506" type="curve" smooth="yes"/>
      <point x="225" y="600"/>
      <point x="327" y="694"/>
      <point x="489" y="694" type="curve" smooth="yes"/>
      <point x="641" y="694"/>
      <point x="732" y="626"/>
      <point x="732" y="466" type="curve" smooth="yes"/>
      <point x="732" y="379"/>
      <point x="715" y="285"/>
      <point x="678" y="204" type="curve" smooth="yes"/>
      <point x="624" y="110"/>
      <point x="521" y="16"/>
    </contour>
    <contour>
      <point x="383" y="-252" type="curve" smooth="yes"/>
      <point x="440" y="-252"/>
      <point x="479" y="-227"/>
      <point x="520" y="-189" type="curve"/>
      <point x="496" y="-163" type="line"/>
      <point x="472" y="-184"/>
      <point x="433" y="-217"/>
      <point x="387" y="-217" type="curve" smooth="yes"/>
      <point x="345" y="-217"/>
      <point x="326" y="-197"/>
      <point x="326" y="-167" type="curve" smooth="yes"/>
      <point x="326" y="-84"/>
      <point x="456" y="-60"/>
      <point x="601" y="48" type="curve" smooth="yes"/>
      <point x="729" y="143"/>
      <point x="787" y="323"/>
      <point x="787" y="473" type="curve" smooth="yes"/>
      <point x="787" y="651"/>
      <point x="667" y="735"/>
      <point x="493" y="735" type="curve" smooth="yes"/>
      <point x="188" y="735"/>
      <point x="61" y="456"/>
      <point x="61" y="238" type="curve" smooth="yes"/>
      <point x="61" y="59"/>
      <point x="181" y="-25"/>
      <point x="354" y="-25" type="curve" smooth="yes"/>
      <point x="404" y="-25"/>
      <point x="448" y="-17"/>
      <point x="488" y="-7" type="curve"/>
      <point x="539" y="33" type="line"/>
      <point x="303" y="-75"/>
      <point x="269" y="-106"/>
      <point x="269" y="-170" type="curve" smooth="yes"/>
      <point x="269" y="-213"/>
      <point x="311" y="-252"/>
    </contour>
  </outline>
</glyph>
<glyph name="oogonek" format="2">
  <advance width="641"/>
  <unicode hex="01EB"/>
  <outline>
    <contour>
      <point x="284" y="-252" type="curve" smooth="yes"/>
      <point x="340" y="-252"/>
      <point x="379" y="-227"/>
      <point x="420" y="-189" type="curve"/>
      <point x="398" y="-163" type="line"/>
      <point x="373" y="-184"/>
      <point x="339" y="-217"/>
      <point x="288" y="-217" type="curve" smooth="yes"/>
      <point x="244" y="-217"/>
      <point x="227" y="-197"/>
      <point x="227" y="-163" type="curve" smooth="yes"/>
      <point x="227" y="-71"/>
      <point x="382" y="-27"/>
      <point x="480" y="62" type="curve" smooth="yes"/>
      <point x="563" y="135"/>
      <point x="594" y="264"/>
      <point x="594" y="353" type="curve" smooth="yes"/>
      <point x="594" y="489"/>
      <point x="510" y="575"/>
      <point x="360" y="575" type="curve" smooth="yes"/>
      <point x="125" y="575"/>
      <point x="46" y="347"/>
      <point x="46" y="209" type="curve" smooth="yes"/>
      <point x="46" y="73"/>
      <point x="130" y="-13"/>
      <point x="280" y="-13" type="curve" smooth="yes"/>
      <point x="325" y="-13"/>
      <point x="364" y="-4"/>
      <point x="398" y="9" type="curve"/>
      <point x="413" y="36" type="line"/>
      <point x="203" y="-70"/>
      <point x="170" y="-106"/>
      <point x="170" y="-164" type="curve" smooth="yes"/>
      <point x="170" y="-216"/>
      <point x="212" y="-252"/>
    </contour>
    <contour>
      <point x="284" y="28" type="curve" smooth="yes"/>
      <point x="159" y="28"/>
      <point x="102" y="83"/>
      <point x="102" y="212" type="curve" smooth="yes"/>
      <point x="102" y="277"/>
      <point x="116" y="361"/>
      <point x="154" y="428" type="curve" smooth="yes"/>
      <point x="192" y="489"/>
      <point x="256" y="534"/>
      <point x="357" y="534" type="curve" smooth="yes"/>
      <point x="481" y="534"/>
      <point x="539" y="479"/>
      <point x="539" y="350" type="curve" smooth="yes"/>
      <point x="539" y="285"/>
      <point x="525" y="201"/>
      <point x="487" y="134" type="curve" smooth="yes"/>
      <point x="448" y="73"/>
      <point x="385" y="28"/>
    </contour>
  </outline>
</glyph>
<glyph name="verticallinelowmod" format="2">
  <advance width="530"/>
  <unicode hex="02CC"/>
  <outline>
    <contour>
      <point x="232" y="-323" type="line"/>
      <point x="298" y="-323" type="line"/>
      <point x="298" y="-50" type="line"/>
      <point x="232" y="-50" type="line"/>
    </contour>
  </outline>
</glyph>
<glyph name="breve" format="2">
  <advance width="530"/>
  <unicode hex="02D8"/>
  <anchor x="266" y="517" name="_top"/>
  <outline>
    <contour>
      <point x="271" y="675" type="curve" smooth="yes"/>
      <point x="374" y="675"/>
      <point x="416" y="723"/>
      <point x="431" y="824" type="curve"/>
      <point x="398" y="824" type="line"/>
      <point x="374" y="745"/>
      <point x="354" y="725"/>
      <point x="271" y="725" type="curve" smooth="yes"/>
      <point x="170" y="725"/>
      <point x="161" y="751"/>
      <point x="164" y="824" type="curve"/>
      <point x="130" y="824" type="line"/>
      <point x="126" y="805"/>
      <point x="125" y="790"/>
      <point x="125" y="778" type="curve" smooth="yes"/>
      <point x="125" y="715"/>
      <point x="154" y="675"/>
    </contour>
  </outline>
</glyph>
<glyph name="Omega" format="2">
  <advance width="916"/>
  <unicode hex="03A9"/>
  <outline>
    <contour>
      <point x="524" y="698" type="curve" smooth="yes"/>
      <point x="311" y="698"/>
      <point x="204" y="572"/>
      <point x="204" y="409" type="curve" smooth="yes"/>
      <point x="204" y="284"/>
      <point x="276" y="188"/>
      <point x="339" y="47" type="curve"/>
      <point x="324" y="0" type="line"/>
      <point x="-11" y="0" type="line"/>
      <point x="47" y="219" type="line"/>
      <point x="96" y="219" type="line"/>
      <point x="77" y="79" type="line" smooth="yes"/>
      <point x="71" y="43"/>
      <point x="107" y="36"/>
      <point x="198" y="36" type="curve" smooth="yes"/>
      <point x="326" y="36" type="line"/>
      <point x="310" y="18" type="line"/>
      <point x="215" y="191"/>
      <point x="151" y="301"/>
      <point x="151" y="425" type="curve" smooth="yes"/>
      <point x="151" y="609"/>
      <point x="298" y="735"/>
      <point x="530" y="735" type="curve" smooth="yes"/>
      <point x="740" y="735"/>
      <point x="851" y="647"/>
      <point x="851" y="491" type="curve" smooth="yes"/>
      <point x="851" y="358"/>
      <point x="726" y="202"/>
      <point x="469" y="16" type="curve"/>
      <point x="461" y="36" type="line"/>
      <point x="606" y="36" type="line" smooth="yes"/>
      <point x="697" y="36"/>
      <point x="735" y="43"/>
      <point x="750" y="79" type="curve" smooth="yes"/>
      <point x="803" y="219" type="line"/>
      <point x="851" y="219" type="line"/>
      <point x="795" y="0" type="line"/>
      <point x="440" y="0" type="line"/>
      <point x="455" y="47" type="line"/>
      <point x="623" y="173"/>
      <point x="798" y="332"/>
      <point x="798" y="488" type="curve" smooth="yes"/>
      <point x="798" y="633"/>
      <point x="699" y="698"/>
    </contour>
  </outline>
</glyph>
<glyph name="thai:baht" format="2">
  <advance width="594"/>
  <unicode hex="0E3F"/>
  <outline>
    <contour>
      <point x="66" y="47" type="line"/>
      <point x="147" y="359" type="line"/>
      <point x="310" y="359" type="line" smooth="yes"/>
      <point x="438" y="359"/>
      <point x="476" y="291"/>
      <point x="476" y="220" type="curve" smooth="yes"/>
      <point x="476" y="211"/>
      <point x="476" y="204"/>
      <point x="474" y="194" type="curve" smooth="yes"/>
      <point x="450" y="69"/>
      <point x="390" y="47"/>
      <point x="245" y="47" type="curve" smooth="yes"/>
    </contour>
    <contour>
      <point x="156" y="390" type="line"/>
      <point x="227" y="662" type="line"/>
      <point x="368" y="662" type="line"/>
      <point x="483" y="662"/>
      <point x="525" y="620"/>
      <point x="525" y="551" type="curve" smooth="yes"/>
      <point x="525" y="538"/>
      <point x="524" y="529"/>
      <point x="519" y="512" type="curve" smooth="yes"/>
      <point x="501" y="442"/>
      <point x="461" y="390"/>
      <point x="325" y="390" type="curve" smooth="yes"/>
    </contour>
    <contour>
      <point x="166" y="-110" type="line"/>
      <point x="206" y="-110" type="line"/>
      <point x="242" y="25" type="line"/>
      <point x="242" y="37" type="line"/>
      <point x="411" y="675" type="line"/>
      <point x="416" y="686" type="line"/>
      <point x="444" y="790" type="line"/>
      <point x="403" y="790" type="line"/>
      <point x="376" y="689" type="line"/>
      <point x="374" y="673" type="line"/>
      <point x="206" y="33" type="line"/>
      <point x="202" y="23" type="line"/>
    </contour>
    <contour>
      <point x="-64" y="10" type="line"/>
      <point x="266" y="10" type="line" smooth="yes"/>
      <point x="456" y="10"/>
      <point x="531" y="106"/>
      <point x="531" y="223" type="curve"/>
      <point x="531" y="287"/>
      <point x="481" y="357"/>
      <point x="374" y="375" type="curve"/>
      <point x="389" y="359" type="line"/>
      <point x="396" y="382" type="line"/>
      <point x="363" y="371" type="line"/>
      <point x="511" y="380"/>
      <point x="577" y="446"/>
      <point x="577" y="555" type="curve" smooth="yes"/>
      <point x="577" y="631"/>
      <point x="516" y="700"/>
      <point x="367" y="700" type="curve" smooth="yes"/>
      <point x="118" y="700" type="line"/>
      <point x="107" y="664" type="line"/>
      <point x="119" y="664" type="line" smooth="yes"/>
      <point x="164" y="664"/>
      <point x="174" y="652"/>
      <point x="167" y="628" type="curve" smooth="yes"/>
      <point x="25" y="82" type="line" smooth="yes"/>
      <point x="18" y="53"/>
      <point x="-7" y="46"/>
      <point x="-43" y="46" type="curve" smooth="yes"/>
      <point x="-54" y="46" type="line"/>
    </contour>
  </outline>
</glyph>
<glyph name="idieresisacute" format="2">
  <advance width="350"/>
  <unicode hex="1E2F"/>
  <outline>
    <contour>
      <point x="107" y="699" type="curve" smooth="yes"/>
      <point x="73" y="699"/>
      <point x="49" y="712"/>
      <point x="49" y="751" type="curve" smooth="yes"/>
      <point x="49" y="790"/>
      <point x="73" y="804"/>
      <point x="107" y="804" type="curve" smooth="yes"/>
      <point x="139" y="804"/>
      <point x="165" y="790"/>
      <point x="165" y="751" type="curve" smooth="yes"/>
      <point x="165" y="712"/>
      <point x="139" y="699"/>
    </contour>
    <contour>
      <point x="341" y="699" type="curve" smooth="yes"/>
      <point x="307" y="699"/>
      <point x="283" y="712"/>
      <point x="283" y="751" type="curve" smooth="yes"/>
      <point x="283" y="790"/>
      <point x="307" y="804"/>
      <point x="341" y="804" type="curve" smooth="yes"/>
      <point x="373" y="804"/>
      <point x="399" y="790"/>
      <point x="399" y="751" type="curve" smooth="yes"/>
      <point x="399" y="712"/>
      <point x="373" y="699"/>
    </contour>
    <contour>
      <point x="298" y="1007" type="curve" smooth="yes"/>
      <point x="206" y="881" type="line"/>
      <point x="201" y="863" type="line"/>
      <point x="223" y="863" type="line"/>
      <point x="342" y="961" type="line" smooth="yes"/>
      <point x="378" y="991"/>
      <point x="399" y="1001"/>
      <point x="399" y="1027" type="curve" smooth="yes"/>
      <point x="399" y="1042"/>
      <point x="386" y="1056"/>
      <point x="360" y="1056" type="curve" smooth="yes"/>
      <point x="331" y="1056"/>
      <point x="321" y="1038"/>
    </contour>
    <component base="dotlessi"/>
  </outline>
</glyph>
<glyph name="Germandbls" format="2">
  <advance width="867"/>
  <unicode hex="1E9E"/>
  <outline>
    <contour>
      <point x="392" y="236" type="curve"/>
      <point x="343" y="236" type="line"/>
      <point x="281" y="0" type="line"/>
      <point x="322" y="0" type="line"/>
      <point x="384" y="211" type="line"/>
      <point x="365" y="188" type="line"/>
      <point x="378" y="65"/>
      <point x="428" y="-14"/>
      <point x="574" y="-14" type="curve" smooth="yes"/>
      <point x="717" y="-14"/>
      <point x="794" y="73"/>
      <point x="794" y="185" type="curve" smooth="yes"/>
      <point x="794" y="296"/>
      <point x="711" y="351"/>
      <point x="539" y="411" type="curve"/>
      <point x="538" y="387" type="line"/>
      <point x="803" y="669" type="line"/>
      <point x="815" y="710" type="line"/>
      <point x="509" y="710" type="line" smooth="yes"/>
      <point x="319" y="710"/>
      <point x="244" y="627"/>
      <point x="203" y="475" type="curve" smooth="yes"/>
      <point x="100" y="80" type="line" smooth="yes"/>
      <point x="92" y="51"/>
      <point x="52" y="44"/>
      <point x="0" y="44" type="curve" smooth="yes"/>
      <point x="-12" y="44" type="line"/>
      <point x="-24" y="0" type="line"/>
      <point x="127" y="0" type="line"/>
      <point x="255" y="482" type="line" smooth="yes"/>
      <point x="286" y="598"/>
      <point x="330" y="671"/>
      <point x="504" y="671" type="curve"/>
      <point x="790" y="671" type="line"/>
      <point x="774" y="699" type="line"/>
      <point x="512" y="416" type="line"/>
      <point x="502" y="383" type="line"/>
      <point x="671" y="326"/>
      <point x="743" y="281"/>
      <point x="743" y="185" type="curve" smooth="yes"/>
      <point x="743" y="90"/>
      <point x="691" y="23"/>
      <point x="574" y="23" type="curve" smooth="yes"/>
      <point x="434" y="23"/>
      <point x="403" y="110"/>
    </contour>
  </outline>
</glyph>
<glyph name="dagger" format="2">
  <advance width="511"/>
  <unicode hex="2020"/>
  <outline>
    <contour>
      <point x="296" y="484" type="line"/>
      <point x="303" y="484" type="line"/>
      <point x="486" y="459" type="line"/>
      <point x="517" y="459" type="line"/>
      <point x="534" y="509" type="line"/>
      <point x="502" y="509" type="line"/>
      <point x="309" y="505" type="line"/>
      <point x="302" y="505" type="line"/>
      <point x="114" y="509" type="line"/>
      <point x="82" y="509" type="line"/>
      <point x="66" y="459" type="line"/>
      <point x="98" y="459" type="line"/>
    </contour>
    <contour>
      <point x="401" y="710" type="line"/>
      <point x="318" y="710" type="line"/>
      <point x="307" y="667" type="line" smooth="yes"/>
      <point x="294" y="618"/>
      <point x="312" y="591"/>
      <point x="288" y="499" type="curve" smooth="yes"/>
      <point x="262" y="403"/>
      <point x="249" y="375"/>
      <point x="223" y="348" type="curve"/>
      <point x="215" y="318" type="line" smooth="yes"/>
      <point x="205" y="277"/>
      <point x="216" y="222"/>
      <point x="154" y="-20" type="curve"/>
      <point x="180" y="-20" type="line"/>
      <point x="246" y="222"/>
      <point x="286" y="270"/>
      <point x="297" y="311" type="curve" smooth="yes"/>
      <point x="304" y="341" type="line"/>
      <point x="292" y="368"/>
      <point x="294" y="403"/>
      <point x="319" y="499" type="curve" smooth="yes"/>
      <point x="344" y="588"/>
      <point x="376" y="614"/>
      <point x="388" y="663" type="curve" smooth="yes"/>
    </contour>
  </outline>
</glyph>
<glyph name="bullet" format="2">
  <advance width="559"/>
  <unicode hex="2022"/>
  <outline>
    <contour>
      <point x="140" y="363" type="curve" smooth="yes"/>
      <point x="140" y="284"/>
      <point x="203" y="231"/>
      <point x="290" y="231" type="curve" smooth="yes"/>
      <point x="378" y="231"/>
      <point x="440" y="284"/>
      <point x="440" y="363" type="curve" smooth="yes"/>
      <point x="440" y="442"/>
      <point x="378" y="494"/>
      <point x="290" y="494" type="curve" smooth="yes"/>
      <point x="203" y="494"/>
      <point x="140" y="442"/>
    </contour>
  </outline>
</glyph>
<glyph name="colonmonetary" format="2">
  <advance width="594"/>
  <unicode hex="20A1"/>
  <outline>
    <contour>
      <point x="406" y="790" type="line"/>
      <point x="361" y="687" type="line"/>
      <point x="361" y="682" type="line"/>
      <point x="108" y="90" type="line"/>
      <point x="101" y="79" type="line"/>
      <point x="13" y="-120" type="line"/>
      <point x="58" y="-120" type="line"/>
      <point x="136" y="59" type="line"/>
      <point x="134" y="63" type="line"/>
      <point x="400" y="685" type="line"/>
      <point x="408" y="690" type="line"/>
      <point x="452" y="790" type="line"/>
    </contour>
    <contour>
      <point x="547" y="790" type="line"/>
      <point x="499" y="677" type="line"/>
      <point x="497" y="667" type="line"/>
      <point x="223" y="29" type="line"/>
      <point x="218" y="25" type="line"/>
      <point x="154" y="-120" type="line"/>
      <point x="199" y="-120" type="line"/>
      <point x="264" y="28" type="line"/>
      <point x="262" y="32" type="line"/>
      <point x="531" y="653" type="line"/>
      <point x="538" y="663" type="line"/>
      <point x="593" y="790" type="line"/>
    </contour>
    <contour>
      <point x="274" y="10" type="curve" smooth="yes"/>
      <point x="417" y="10"/>
      <point x="495" y="79"/>
      <point x="551" y="208" type="curve"/>
      <point x="516" y="220" type="line"/>
      <point x="465" y="111"/>
      <point x="406" y="40"/>
      <point x="273" y="40" type="curve" smooth="yes"/>
      <point x="145" y="40"/>
      <point x="76" y="101"/>
      <point x="76" y="255" type="curve" smooth="yes"/>
      <point x="76" y="308"/>
      <point x="78" y="334"/>
      <point x="94" y="398" type="curve" smooth="yes"/>
      <point x="137" y="581"/>
      <point x="251" y="671"/>
      <point x="404" y="671" type="curve" smooth="yes"/>
      <point x="497" y="671"/>
      <point x="573" y="645"/>
      <point x="605" y="621" type="curve"/>
      <point x="607" y="637"/>
      <point x="589" y="641"/>
      <point x="583" y="648" type="curve"/>
      <point x="538" y="484" type="line"/>
      <point x="582" y="484" type="line"/>
      <point x="628" y="655" type="line"/>
      <point x="606" y="668"/>
      <point x="508" y="700"/>
      <point x="408" y="700" type="curve" smooth="yes"/>
      <point x="129" y="700"/>
      <point x="27" y="474"/>
      <point x="27" y="249" type="curve" smooth="yes"/>
      <point x="27" y="91"/>
      <point x="118" y="10"/>
    </contour>
  </outline>
</glyph>
<glyph name="peseta" format="2">
  <advance width="594"/>
  <unicode hex="20A7"/>
  <outline>
    <contour>
      <point x="-67" y="0" type="line"/>
      <point x="90" y="0" type="line"/>
      <point x="100" y="36" type="line"/>
      <point x="88" y="36" type="line" smooth="yes"/>
      <point x="69" y="36"/>
      <point x="38" y="39"/>
      <point x="40" y="46" type="curve" smooth="yes"/>
      <point x="94" y="251" type="line"/>
      <point x="138" y="251" type="line" smooth="yes"/>
      <point x="304" y="251"/>
      <point x="393" y="382"/>
      <point x="393" y="547" type="curve" smooth="yes"/>
      <point x="393" y="637"/>
      <point x="343" y="710"/>
      <point x="223" y="710" type="curve" smooth="yes"/>
      <point x="120" y="710" type="line"/>
      <point x="110" y="674" type="line"/>
      <point x="115" y="674" type="line" smooth="yes"/>
      <point x="139" y="674"/>
      <point x="153" y="667"/>
      <point x="145" y="638" type="curve" smooth="yes"/>
      <point x="-3" y="72" type="line" smooth="yes"/>
      <point x="-11" y="43"/>
      <point x="-29" y="36"/>
      <point x="-52" y="36" type="curve" smooth="yes"/>
      <point x="-57" y="36" type="line"/>
    </contour>
    <contour>
      <point x="222" y="674" type="line" smooth="yes"/>
      <point x="307" y="674"/>
      <point x="343" y="623"/>
      <point x="343" y="544" type="curve" smooth="yes"/>
      <point x="343" y="521"/>
      <point x="341" y="490"/>
      <point x="334" y="462" type="curve" smooth="yes"/>
      <point x="307" y="354"/>
      <point x="249" y="287"/>
      <point x="142" y="287" type="curve" smooth="yes"/>
      <point x="104" y="287" type="line"/>
      <point x="204" y="674" type="line"/>
    </contour>
    <contour>
      <point x="480" y="539" type="line"/>
      <point x="371" y="125" type="line" smooth="yes"/>
      <point x="362" y="89"/>
      <point x="359" y="78"/>
      <point x="359" y="57" type="curve"/>
      <point x="359" y="22"/>
      <point x="384" y="0"/>
      <point x="448" y="0" type="curve" smooth="yes"/>
      <point x="484" y="0"/>
      <point x="512" y="0"/>
      <point x="522" y="0" type="curve"/>
      <point x="533" y="34" type="line"/>
      <point x="522" y="34"/>
      <point x="496" y="34"/>
      <point x="448" y="34" type="curve" smooth="yes"/>
      <point x="425" y="34"/>
      <point x="407" y="39"/>
      <point x="407" y="62" type="curve"/>
      <point x="407" y="72"/>
      <point x="408" y="79"/>
      <point x="415" y="109" type="curve" smooth="yes"/>
      <point x="574" y="710" type="line"/>
      <point x="538" y="710" type="line"/>
      <point x="515" y="624" type="line" smooth="yes"/>
      <point x="499" y="566"/>
      <point x="480" y="551"/>
      <point x="425" y="551" type="curve" smooth="yes"/>
      <point x="371" y="551" type="line"/>
      <point x="362" y="519" type="line"/>
      <point x="643" y="519" type="line"/>
      <point x="653" y="555" type="line"/>
      <point x="521" y="555" type="line"/>
    </contour>
  </outline>
</glyph>
<glyph name="peso" format="2">
  <advance width="594"/>
  <unicode hex="20B1"/>
  <outline>
    <contour>
      <point x="72" y="480" type="line"/>
      <point x="63" y="451" type="line"/>
      <point x="174" y="451" type="line"/>
      <point x="174" y="447" type="line"/>
      <point x="508" y="447" type="line"/>
      <point x="515" y="451" type="line"/>
      <point x="629" y="451" type="line"/>
      <point x="637" y="480" type="line"/>
      <point x="536" y="480" type="line"/>
      <point x="511" y="485" type="line"/>
      <point x="181" y="485" type="line"/>
      <point x="187" y="480" type="line"/>
    </contour>
    <contour>
      <point x="-56" y="0" type="line"/>
      <point x="164" y="0" type="line"/>
      <point x="176" y="36" type="line"/>
      <point x="157" y="36" type="line" smooth="yes"/>
      <point x="125" y="36"/>
      <point x="86" y="39"/>
      <point x="88" y="46" type="curve" smooth="yes"/>
      <point x="132" y="219" type="line"/>
      <point x="233" y="219" type="line" smooth="yes"/>
      <point x="443" y="219"/>
      <point x="543" y="324"/>
      <point x="543" y="514" type="curve" smooth="yes"/>
      <point x="543" y="637"/>
      <point x="464" y="710"/>
      <point x="307" y="710" type="curve" smooth="yes"/>
      <point x="132" y="710" type="line"/>
      <point x="121" y="674" type="line"/>
      <point x="133" y="674" type="line" smooth="yes"/>
      <point x="172" y="674"/>
      <point x="200" y="667"/>
      <point x="192" y="638" type="curve" smooth="yes"/>
      <point x="45" y="72" type="line" smooth="yes"/>
      <point x="37" y="43"/>
      <point x="6" y="36"/>
      <point x="-34" y="36" type="curve" smooth="yes"/>
      <point x="-45" y="36" type="line"/>
    </contour>
    <contour>
      <point x="299" y="677" type="line" smooth="yes"/>
      <point x="442" y="677"/>
      <point x="494" y="613"/>
      <point x="494" y="508" type="curve" smooth="yes"/>
      <point x="494" y="489"/>
      <point x="493" y="465"/>
      <point x="487" y="436" type="curve" smooth="yes"/>
      <point x="461" y="322"/>
      <point x="385" y="253"/>
      <point x="231" y="253" type="curve" smooth="yes"/>
      <point x="142" y="253" type="line"/>
      <point x="252" y="677" type="line"/>
    </contour>
  </outline>
</glyph>
<glyph name="guarani" format="2">
  <advance width="594"/>
  <unicode hex="20B2"/>
  <outline>
    <contour>
      <point x="392" y="790" type="line"/>
      <point x="366" y="695" type="line"/>
      <point x="366" y="685" type="line"/>
      <point x="194" y="32" type="line"/>
      <point x="190" y="21" type="line"/>
      <point x="153" y="-120" type="line"/>
      <point x="193" y="-120" type="line"/>
      <point x="231" y="22" type="line"/>
      <point x="231" y="32" type="line"/>
      <point x="402" y="681" type="line"/>
      <point x="408" y="699" type="line"/>
      <point x="433" y="790" type="line"/>
    </contour>
    <contour>
      <point x="256" y="10" type="curve" smooth="yes"/>
      <point x="341" y="10"/>
      <point x="409" y="55"/>
      <point x="442" y="80" type="curve"/>
      <point x="497" y="287" type="line" smooth="yes"/>
      <point x="504" y="316"/>
      <point x="530" y="323"/>
      <point x="560" y="323" type="curve" smooth="yes"/>
      <point x="570" y="323" type="line"/>
      <point x="580" y="358" type="line"/>
      <point x="474" y="358" type="line"/>
      <point x="458" y="297" type="line"/>
      <point x="458" y="297" type="line"/>
      <point x="458" y="297"/>
      <point x="456" y="290"/>
      <point x="449" y="261" type="curve" smooth="yes"/>
      <point x="404" y="99" type="line"/>
      <point x="385" y="84"/>
      <point x="341" y="45"/>
      <point x="259" y="45" type="curve" smooth="yes"/>
      <point x="153" y="45"/>
      <point x="84" y="122"/>
      <point x="84" y="263" type="curve" smooth="yes"/>
      <point x="84" y="296"/>
      <point x="87" y="341"/>
      <point x="104" y="415" type="curve" smooth="yes"/>
      <point x="141" y="572"/>
      <point x="230" y="665"/>
      <point x="371" y="665" type="curve" smooth="yes"/>
      <point x="429" y="665"/>
      <point x="505" y="658"/>
      <point x="555" y="606" type="curve"/>
      <point x="550" y="631"/>
      <point x="541" y="646"/>
      <point x="535" y="656" type="curve"/>
      <point x="498" y="516" type="line"/>
      <point x="547" y="516" type="line"/>
      <point x="580" y="639" type="line"/>
      <point x="551" y="661"/>
      <point x="484" y="700"/>
      <point x="374" y="700" type="curve" smooth="yes"/>
      <point x="107" y="700"/>
      <point x="35" y="432"/>
      <point x="35" y="257" type="curve" smooth="yes"/>
      <point x="35" y="102"/>
      <point x="122" y="10"/>
    </contour>
  </outline>
</glyph>
<glyph name="radical" format="2">
  <advance width="588"/>
  <unicode hex="221A"/>
  <outline>
    <contour>
      <point x="40" y="356" type="line"/>
      <point x="191" y="356" type="line"/>
      <point x="158" y="357" type="line"/>
      <point x="166" y="0" type="line"/>
      <point x="201" y="0" type="line"/>
      <point x="216" y="22" type="line"/>
      <point x="209" y="398" type="line"/>
      <point x="52" y="398" type="line"/>
    </contour>
    <contour>
      <point x="624" y="710" type="line"/>
      <point x="192" y="0" type="line"/>
      <point x="241" y="0" type="line"/>
      <point x="677" y="710" type="line"/>
    </contour>
  </outline>
</glyph>
<glyph name="integral" format="2">
  <advance width="562"/>
  <unicode hex="222B"/>
  <outline>
    <contour>
      <point x="335" y="586" type="line" smooth="yes"/>
      <point x="353" y="662"/>
      <point x="380" y="703"/>
      <point x="467" y="703" type="curve" smooth="yes"/>
      <point x="510" y="703"/>
      <point x="563" y="693"/>
      <point x="585" y="680" type="curve"/>
      <point x="580" y="702"/>
      <point x="584" y="707"/>
      <point x="555" y="716" type="curve"/>
      <point x="531" y="591" type="line"/>
      <point x="581" y="591" type="line"/>
      <point x="607" y="715" type="line"/>
      <point x="586" y="721"/>
      <point x="534" y="737"/>
      <point x="467" y="737" type="curve" smooth="yes"/>
      <point x="367" y="737"/>
      <point x="310" y="694"/>
      <point x="286" y="590" type="curve" smooth="yes"/>
      <point x="138" y="-61" type="line" smooth="yes"/>
      <point x="116" y="-161"/>
      <point x="89" y="-202"/>
      <point x="1" y="-202" type="curve" smooth="yes"/>
      <point x="-41" y="-202"/>
      <point x="-93" y="-192"/>
      <point x="-116" y="-179" type="curve"/>
      <point x="-111" y="-201"/>
      <point x="-115" y="-206"/>
      <point x="-86" y="-215" type="curve"/>
      <point x="-63" y="-90" type="line"/>
      <point x="-112" y="-90" type="line"/>
      <point x="-138" y="-214" type="line"/>
      <point x="-117" y="-220"/>
      <point x="-66" y="-236"/>
      <point x="2" y="-236" type="curve" smooth="yes"/>
      <point x="104" y="-236"/>
      <point x="159" y="-189"/>
      <point x="187" y="-65" type="curve" smooth="yes"/>
    </contour>
  </outline>
</glyph>
<glyph name="nine.den" format="2">
  <advance width="513"/>
  <unicode hex="E40B"/>
  <outline>
    <contour>
      <point x="259" y="420" type="curve" smooth="yes"/>
      <point x="353" y="420"/>
      <point x="410" y="371"/>
      <point x="410" y="273" type="curve" smooth="yes"/>
      <point x="410" y="110"/>
      <point x="306" y="-8"/>
      <point x="77" y="-25" type="curve"/>
      <point x="75" y="0" type="line"/>
      <point x="277" y="22"/>
      <point x="365" y="121"/>
      <point x="365" y="272" type="curve" smooth="yes"/>
      <point x="365" y="347"/>
      <point x="332" y="395"/>
      <point x="260" y="395" type="curve" smooth="yes"/>
      <point x="169" y="395"/>
      <point x="145" y="322"/>
      <point x="145" y="256" type="curve" smooth="yes"/>
      <point x="145" y="208"/>
      <point x="165" y="177"/>
      <point x="220" y="177" type="curve" smooth="yes"/>
      <point x="294" y="177"/>
      <point x="334" y="226"/>
      <point x="374" y="287" type="curve"/>
      <point x="374" y="263" type="line"/>
      <point x="343" y="207"/>
      <point x="295" y="152"/>
      <point x="216" y="152" type="curve" smooth="yes"/>
      <point x="145" y="152"/>
      <point x="96" y="193"/>
      <point x="96" y="261" type="curve" smooth="yes"/>
      <point x="96" y="334"/>
      <point x="150" y="420"/>
    </contour>
  </outline>
</glyph>
<glyph name="f_f" format="2">
  <advance width="774"/>
  <unicode hex="FB00"/>
  <outline>
    <contour>
      <point x="81" y="565" type="line"/>
      <point x="73" y="526" type="line"/>
      <point x="424" y="526" type="line"/>
      <point x="432" y="565" type="line"/>
    </contour>
    <contour>
      <point x="380" y="733" type="curve" smooth="yes"/>
      <point x="413" y="733"/>
      <point x="444" y="727"/>
      <point x="471" y="722" type="curve"/>
      <point x="480" y="764" type="line"/>
      <point x="459" y="769"/>
      <point x="425" y="775"/>
      <point x="384" y="775" type="curve" smooth="yes"/>
      <point x="291" y="775"/>
      <point x="240" y="740"/>
      <point x="222" y="650" type="curve" smooth="yes"/>
      <point x="56" y="-223" type="line"/>
      <point x="99" y="-223" type="line"/>
      <point x="276" y="645" type="line" smooth="yes"/>
      <point x="290" y="716"/>
      <point x="318" y="733"/>
    </contour>
    <contour>
      <point x="436" y="565" type="line"/>
      <point x="428" y="526" type="line"/>
      <point x="786" y="526" type="line"/>
      <point x="793" y="565" type="line"/>
    </contour>
    <contour>
      <point x="753" y="748" type="curve" smooth="yes"/>
      <point x="793" y="748"/>
      <point x="833" y="740"/>
      <point x="855" y="734" type="curve"/>
      <point x="864" y="776" type="line"/>
      <point x="841" y="782"/>
      <point x="804" y="790"/>
      <point x="753" y="790" type="curve" smooth="yes"/>
      <point x="653" y="790"/>
      <point x="596" y="739"/>
      <point x="580" y="665" type="curve" smooth="yes"/>
      <point x="412" y="-223" type="line"/>
      <point x="454" y="-223" type="line"/>
      <point x="634" y="660" type="line" smooth="yes"/>
      <point x="647" y="723"/>
      <point x="678" y="748"/>
    </contour>
  </outline>
</glyph>
<glyph name="Euro.proportional" format="2">
  <advance width="721"/>
  <outline>
    <contour>
      <point x="372" y="-25" type="curve" smooth="yes"/>
      <point x="496" y="-25"/>
      <point x="577" y="35"/>
      <point x="646" y="160" type="curve"/>
      <point x="609" y="176" type="line"/>
      <point x="557" y="81"/>
      <point x="487" y="10"/>
      <point x="377" y="10" type="curve" smooth="yes"/>
      <point x="251" y="10"/>
      <point x="172" y="72"/>
      <point x="172" y="221" type="curve" smooth="yes"/>
      <point x="172" y="257"/>
      <point x="178" y="304"/>
      <point x="195" y="384" type="curve" smooth="yes"/>
      <point x="238" y="580"/>
      <point x="359" y="700"/>
      <point x="522" y="700" type="curve" smooth="yes"/>
      <point x="598" y="700"/>
      <point x="655" y="687"/>
      <point x="707" y="662" type="curve"/>
      <point x="709" y="675"/>
      <point x="706" y="700"/>
      <point x="680" y="700" type="curve"/>
      <point x="647" y="567" type="line"/>
      <point x="696" y="567" type="line"/>
      <point x="730" y="697" type="line"/>
      <point x="698" y="711"/>
      <point x="628" y="735"/>
      <point x="528" y="735" type="curve" smooth="yes"/>
      <point x="240" y="735"/>
      <point x="124" y="449"/>
      <point x="124" y="215" type="curve" smooth="yes"/>
      <point x="124" y="55"/>
      <point x="219" y="-25"/>
    </contour>
    <contour>
      <point x="16" y="270" type="line"/>
      <point x="6" y="236" type="line"/>
      <point x="448" y="236" type="line"/>
      <point x="458" y="270" type="line"/>
    </contour>
    <contour>
      <point x="63" y="450" type="line"/>
      <point x="53" y="417" type="line"/>
      <point x="527" y="417" type="line"/>
      <point x="537" y="450" type="line"/>
    </contour>
  </outline>
</glyph>
<glyph name="acute.pl" format="2">
  <advance width="530"/>
  <anchor x="234" y="489" name="_top"/>
  <outline>
    <contour>
      <point x="260" y="795" type="curve" smooth="yes"/>
      <point x="223" y="679" type="line"/>
      <point x="224" y="661" type="line"/>
      <point x="246" y="661" type="line"/>
      <point x="330" y="764" type="line" smooth="yes"/>
      <point x="351" y="790"/>
      <point x="364" y="804"/>
      <point x="364" y="825" type="curve" smooth="yes"/>
      <point x="364" y="848"/>
      <point x="346" y="862"/>
      <point x="321" y="862" type="curve" smooth="yes"/>
      <point x="285" y="862"/>
      <point x="273" y="834"/>
    </contour>
  </outline>
</glyph>
<glyph name="breve.uc" format="2">
  <advance width="530"/>
  <anchor x="266" y="694" name="_top"/>
  <outline>
    <contour>
      <point x="269" y="794" type="curve" smooth="yes"/>
      <point x="156" y="794"/>
      <point x="116" y="830"/>
      <point x="116" y="895" type="curve" smooth="yes"/>
      <point x="116" y="908"/>
      <point x="117" y="921"/>
      <point x="122" y="942" type="curve"/>
      <point x="161" y="942" type="line"/>
      <point x="156" y="870"/>
      <point x="171" y="847"/>
      <point x="274" y="847" type="curve" smooth="yes"/>
      <point x="358" y="847"/>
      <point x="383" y="860"/>
      <point x="404" y="942" type="curve"/>
      <point x="443" y="942" type="line"/>
      <point x="430" y="842"/>
      <point x="385" y="794"/>
    </contour>
  </outline>
</glyph>
<glyph name="breve_tilde" format="2">
  <advance width="530"/>
  <anchor x="266" y="524" name="_top"/>
  <outline>
    <contour>
      <point x="351" y="877" type="curve" smooth="yes"/>
      <point x="396" y="877"/>
      <point x="423" y="896"/>
      <point x="461" y="1014" type="curve"/>
      <point x="425" y="1021" type="line"/>
      <point x="400" y="952"/>
      <point x="386" y="919"/>
      <point x="353" y="919" type="curve" smooth="yes"/>
      <point x="297" y="919"/>
      <point x="313" y="1016"/>
      <point x="232" y="1016" type="curve" smooth="yes"/>
      <point x="188" y="1016"/>
      <point x="153" y="989"/>
      <point x="118" y="883" type="curve"/>
      <point x="155" y="876" type="line"/>
      <point x="180" y="942"/>
      <point x="194" y="974"/>
      <point x="225" y="974" type="curve" smooth="yes"/>
      <point x="274" y="974"/>
      <point x="264" y="877"/>
    </contour>
    <contour>
      <point x="261" y="675" type="curve" smooth="yes"/>
      <point x="365" y="675"/>
      <point x="407" y="723"/>
      <point x="422" y="827" type="curve"/>
      <point x="389" y="827" type="line"/>
      <point x="365" y="745"/>
      <point x="344" y="725"/>
      <point x="262" y="725" type="curve" smooth="yes"/>
      <point x="161" y="725"/>
      <point x="152" y="751"/>
      <point x="155" y="827" type="curve"/>
      <point x="121" y="827" type="line"/>
      <point x="117" y="805"/>
      <point x="116" y="790"/>
      <point x="116" y="778" type="curve" smooth="yes"/>
      <point x="116" y="715"/>
      <point x="145" y="675"/>
    </contour>
  </outline>
</glyph>
<glyph name="cent.proportional" format="2">
  <advance width="608"/>
  <outline>
    <contour>
      <point x="394" y="703" type="line"/>
      <point x="359" y="563" type="line"/>
      <point x="358" y="552" type="line"/>
      <point x="222" y="15" type="line"/>
      <point x="216" y="-2" type="line"/>
      <point x="174" y="-166" type="line"/>
      <point x="215" y="-166" type="line"/>
      <point x="257" y="1" type="line"/>
      <point x="258" y="11" type="line"/>
      <point x="395" y="553" type="line"/>
      <point x="400" y="564" type="line"/>
      <point x="436" y="703" type="line"/>
    </contour>
    <contour>
      <point x="368" y="576" type="curve" smooth="yes"/>
      <point x="145" y="576"/>
      <point x="34" y="397"/>
      <point x="34" y="213" type="curve" smooth="yes"/>
      <point x="34" y="85"/>
      <point x="121" y="-13"/>
      <point x="278" y="-13" type="curve" smooth="yes"/>
      <point x="392" y="-13"/>
      <point x="468" y="40"/>
      <point x="520" y="127" type="curve"/>
      <point x="484" y="148" type="line"/>
      <point x="439" y="79"/>
      <point x="384" y="27"/>
      <point x="282" y="27" type="curve" smooth="yes"/>
      <point x="149" y="27"/>
      <point x="87" y="105"/>
      <point x="87" y="216" type="curve" smooth="yes"/>
      <point x="87" y="361"/>
      <point x="159" y="537"/>
      <point x="368" y="537" type="curve" smooth="yes"/>
      <point x="472" y="537"/>
      <point x="524" y="506"/>
      <point x="548" y="487" type="curve"/>
      <point x="550" y="500"/>
      <point x="545" y="535"/>
      <point x="519" y="548" type="curve"/>
      <point x="481" y="408" type="line"/>
      <point x="542" y="408" type="line"/>
      <point x="576" y="528" type="line"/>
      <point x="553" y="542"/>
      <point x="494" y="576"/>
    </contour>
  </outline>
</glyph>
<glyph name="circumflex_grave.uc" format="2">
  <advance width="524"/>
  <anchor x="256" y="696" name="_top"/>
  <outline>
    <contour>
      <point x="504" y="1009" type="line" smooth="yes"/>
      <point x="463" y="1053"/>
      <point x="447" y="1083"/>
      <point x="414" y="1083" type="curve" smooth="yes"/>
      <point x="389" y="1083"/>
      <point x="374" y="1062"/>
      <point x="374" y="1046" type="curve" smooth="yes"/>
      <point x="374" y="1021"/>
      <point x="409" y="1000"/>
      <point x="428" y="990" type="curve" smooth="yes"/>
      <point x="545" y="923" type="line"/>
      <point x="564" y="923" type="line"/>
      <point x="574" y="942" type="line"/>
    </contour>
    <component base="circumflex.uc"/>
  </outline>
</glyph>
<glyph name="colonmonetary.proportional" format="2">
  <advance width="686"/>
  <outline>
    <contour>
      <point x="302" y="10" type="curve" smooth="yes"/>
      <point x="476" y="10"/>
      <point x="551" y="108"/>
      <point x="608" y="233" type="curve"/>
      <point x="570" y="240" type="line"/>
      <point x="522" y="138"/>
      <point x="466" y="40"/>
      <point x="306" y="40" type="curve" smooth="yes"/>
      <point x="162" y="40"/>
      <point x="90" y="99"/>
      <point x="90" y="268" type="curve" smooth="yes"/>
      <point x="90" y="484"/>
      <point x="214" y="671"/>
      <point x="432" y="671" type="curve" smooth="yes"/>
      <point x="571" y="671"/>
      <point x="640" y="626"/>
      <point x="671" y="608" type="curve"/>
      <point x="671" y="626"/>
      <point x="640" y="639"/>
      <point x="637" y="642" type="curve"/>
      <point x="592" y="478" type="line"/>
      <point x="641" y="478" type="line"/>
      <point x="685" y="644" type="line"/>
      <point x="656" y="662"/>
      <point x="572" y="700"/>
      <point x="435" y="700" type="curve" smooth="yes"/>
      <point x="184" y="700"/>
      <point x="43" y="489"/>
      <point x="43" y="267" type="curve" smooth="yes"/>
      <point x="43" y="81"/>
      <point x="149" y="10"/>
    </contour>
    <contour>
      <point x="424" y="790" type="line"/>
      <point x="383" y="687" type="line"/>
      <point x="382" y="682" type="line"/>
      <point x="137" y="76" type="line"/>
      <point x="132" y="67" type="line"/>
      <point x="56" y="-120" type="line"/>
      <point x="102" y="-120" type="line"/>
      <point x="164" y="37" type="line"/>
      <point x="163" y="44" type="line"/>
      <point x="422" y="685" type="line"/>
      <point x="431" y="690" type="line"/>
      <point x="469" y="790" type="line"/>
    </contour>
    <contour>
      <point x="571" y="790" type="line"/>
      <point x="528" y="677" type="line"/>
      <point x="526" y="667" type="line"/>
      <point x="266" y="29" type="line"/>
      <point x="262" y="25" type="line"/>
      <point x="204" y="-120" type="line"/>
      <point x="249" y="-120" type="line"/>
      <point x="308" y="28" type="line"/>
      <point x="306" y="32" type="line"/>
      <point x="559" y="653" type="line"/>
      <point x="568" y="663" type="line"/>
      <point x="617" y="790" type="line"/>
    </contour>
  </outline>
</glyph>
<glyph name="currency.proportional" format="2">
  <advance width="590"/>
  <outline>
    <contour>
      <point x="283" y="183" type="curve" smooth="yes"/>
      <point x="399" y="183"/>
      <point x="508" y="288"/>
      <point x="508" y="389" type="curve" smooth="yes"/>
      <point x="508" y="487"/>
      <point x="423" y="564"/>
      <point x="317" y="564" type="curve" smooth="yes"/>
      <point x="200" y="564"/>
      <point x="92" y="459"/>
      <point x="92" y="358" type="curve" smooth="yes"/>
      <point x="92" y="261"/>
      <point x="177" y="183"/>
    </contour>
    <contour>
      <point x="285" y="225" type="curve" smooth="yes"/>
      <point x="198" y="225"/>
      <point x="151" y="283"/>
      <point x="151" y="350" type="curve" smooth="yes"/>
      <point x="151" y="438"/>
      <point x="214" y="522"/>
      <point x="315" y="522" type="curve" smooth="yes"/>
      <point x="402" y="522"/>
      <point x="448" y="464"/>
      <point x="448" y="397" type="curve" smooth="yes"/>
      <point x="448" y="309"/>
      <point x="386" y="225"/>
    </contour>
    <contour>
      <point x="15" y="126" type="line"/>
      <point x="176" y="253" type="line"/>
      <point x="137" y="280" type="line"/>
      <point x="-17" y="161" type="line"/>
    </contour>
    <contour>
      <point x="179" y="483" type="line"/>
      <point x="226" y="506" type="line"/>
      <point x="136" y="627" type="line"/>
      <point x="93" y="597" type="line"/>
    </contour>
    <contour>
      <point x="464" y="477" type="line"/>
      <point x="618" y="582" type="line"/>
      <point x="587" y="617" type="line"/>
      <point x="426" y="504" type="line"/>
    </contour>
    <contour>
      <point x="462" y="119" type="line"/>
      <point x="505" y="149" type="line"/>
      <point x="420" y="263" type="line"/>
      <point x="372" y="240" type="line"/>
    </contour>
  </outline>
</glyph>
<glyph name="dblgrave" format="2">
  <advance width="530"/>
  <anchor x="254" y="539" name="_top"/>
  <outline>
    <contour>
      <point x="438" y="804" type="line" smooth="yes"/>
      <point x="428" y="841"/>
      <point x="419" y="862"/>
      <point x="387" y="862" type="curve" smooth="yes"/>
      <point x="363" y="862"/>
      <point x="346" y="846"/>
      <point x="346" y="830" type="curve" smooth="yes"/>
      <point x="346" y="813"/>
      <point x="358" y="796"/>
      <point x="385" y="758" type="curve" smooth="yes"/>
      <point x="455" y="661" type="line"/>
      <point x="479" y="661" type="line"/>
      <point x="474" y="679" type="line"/>
    </contour>
    <contour>
      <point x="250" y="804" type="line" smooth="yes"/>
      <point x="239" y="841"/>
      <point x="230" y="862"/>
      <point x="199" y="862" type="curve" smooth="yes"/>
      <point x="175" y="862"/>
      <point x="158" y="846"/>
      <point x="158" y="830" type="curve" smooth="yes"/>
      <point x="158" y="813"/>
      <point x="169" y="796"/>
      <point x="197" y="758" type="curve" smooth="yes"/>
      <point x="267" y="661" type="line"/>
      <point x="291" y="661" type="line"/>
      <point x="285" y="679" type="line"/>
    </contour>
  </outline>
</glyph>
<glyph name="dieresis.uc" format="2">
  <advance width="530"/>
  <anchor x="266" y="694" name="_top"/>
  <outline>
    <contour>
      <point x="152" y="813" type="curve" smooth="yes"/>
      <point x="184" y="813"/>
      <point x="210" y="826"/>
      <point x="210" y="865" type="curve" smooth="yes"/>
      <point x="210" y="904"/>
      <point x="184" y="918"/>
      <point x="152" y="918" type="curve" smooth="yes"/>
      <point x="117" y="918"/>
      <point x="94" y="904"/>
      <point x="94" y="865" type="curve" smooth="yes"/>
      <point x="94" y="826"/>
      <point x="117" y="813"/>
    </contour>
    <contour>
      <point x="402" y="813" type="curve" smooth="yes"/>
      <point x="434" y="813"/>
      <point x="460" y="826"/>
      <point x="460" y="865" type="curve" smooth="yes"/>
      <point x="460" y="904"/>
      <point x="434" y="918"/>
      <point x="402" y="918" type="curve" smooth="yes"/>
      <point x="368" y="918"/>
      <point x="344" y="904"/>
      <point x="344" y="865" type="curve" smooth="yes"/>
      <point x="344" y="826"/>
      <point x="368" y="813"/>
    </contour>
  </outline>
</glyph>
<glyph name="dollar.alt" format="2">
  <advance width="594"/>
  <outline>
    <contour>
      <point x="248" y="14" type="curve" smooth="yes"/>
      <point x="406" y="14"/>
      <point x="515" y="75"/>
      <point x="515" y="207" type="curve" smooth="yes"/>
      <point x="515" y="312"/>
      <point x="416" y="345"/>
      <point x="339" y="374" type="curve" smooth="yes"/>
      <point x="219" y="424"/>
      <point x="176" y="446"/>
      <point x="176" y="520" type="curve" smooth="yes"/>
      <point x="176" y="614"/>
      <point x="235" y="661"/>
      <point x="366" y="661" type="curve" smooth="yes"/>
      <point x="465" y="661"/>
      <point x="534" y="634"/>
      <point x="575" y="613" type="curve"/>
      <point x="578" y="616"/>
      <point x="562" y="666"/>
      <point x="541" y="667" type="curve"/>
      <point x="498" y="501" type="line"/>
      <point x="553" y="501" type="line"/>
      <point x="593" y="648" type="line"/>
      <point x="567" y="661"/>
      <point x="489" y="696"/>
      <point x="368" y="696" type="curve" smooth="yes"/>
      <point x="222" y="696"/>
      <point x="127" y="637"/>
      <point x="127" y="519" type="curve" smooth="yes"/>
      <point x="127" y="418"/>
      <point x="210" y="382"/>
      <point x="285" y="355" type="curve" smooth="yes"/>
      <point x="408" y="304"/>
      <point x="466" y="281"/>
      <point x="466" y="205" type="curve" smooth="yes"/>
      <point x="466" y="100"/>
      <point x="392" y="49"/>
      <point x="251" y="49" type="curve" smooth="yes"/>
      <point x="141" y="49"/>
      <point x="57" y="79"/>
      <point x="22" y="112" type="curve"/>
      <point x="13" y="117"/>
      <point x="21" y="89"/>
      <point x="41" y="72" type="curve"/>
      <point x="86" y="242" type="line"/>
      <point x="30" y="242" type="line"/>
      <point x="-13" y="82" type="line"/>
      <point x="36" y="50"/>
      <point x="125" y="14"/>
    </contour>
    <contour>
      <point x="148" y="-150" type="line"/>
      <point x="190" y="-150" type="line"/>
      <point x="238" y="31" type="line"/>
      <point x="196" y="32" type="line"/>
    </contour>
    <contour>
      <point x="410" y="680" type="line"/>
      <point x="446" y="817" type="line"/>
      <point x="405" y="817" type="line"/>
      <point x="369" y="683" type="line"/>
    </contour>
  </outline>
</glyph>
<glyph name="dollar.altprop" format="2">
  <advance width="602"/>
  <outline>
    <contour>
      <point x="252" y="14" type="curve" smooth="yes"/>
      <point x="414" y="14"/>
      <point x="526" y="73"/>
      <point x="526" y="208" type="curve" smooth="yes"/>
      <point x="526" y="318"/>
      <point x="421" y="347"/>
      <point x="342" y="376" type="curve" smooth="yes"/>
      <point x="220" y="424"/>
      <point x="177" y="447"/>
      <point x="177" y="522" type="curve" smooth="yes"/>
      <point x="177" y="606"/>
      <point x="240" y="657"/>
      <point x="370" y="657" type="curve" smooth="yes"/>
      <point x="472" y="657"/>
      <point x="544" y="630"/>
      <point x="586" y="609" type="curve"/>
      <point x="588" y="612"/>
      <point x="573" y="666"/>
      <point x="552" y="667" type="curve"/>
      <point x="505" y="510" type="line"/>
      <point x="563" y="501" type="line"/>
      <point x="603" y="648" type="line"/>
      <point x="577" y="661"/>
      <point x="496" y="696"/>
      <point x="373" y="696" type="curve" smooth="yes"/>
      <point x="225" y="696"/>
      <point x="125" y="635"/>
      <point x="125" y="516" type="curve" smooth="yes"/>
      <point x="125" y="416"/>
      <point x="211" y="380"/>
      <point x="290" y="353" type="curve" smooth="yes"/>
      <point x="413" y="305"/>
      <point x="475" y="288"/>
      <point x="475" y="203" type="curve" smooth="yes"/>
      <point x="475" y="105"/>
      <point x="396" y="52"/>
      <point x="255" y="52" type="curve" smooth="yes"/>
      <point x="142" y="52"/>
      <point x="56" y="83"/>
      <point x="20" y="116" type="curve"/>
      <point x="11" y="121"/>
      <point x="18" y="89"/>
      <point x="38" y="72" type="curve"/>
      <point x="83" y="242" type="line"/>
      <point x="27" y="242" type="line"/>
      <point x="-15" y="82" type="line"/>
      <point x="35" y="50"/>
      <point x="126" y="14"/>
    </contour>
    <contour>
      <point x="152" y="-150" type="line"/>
      <point x="193" y="-150" type="line"/>
      <point x="241" y="31" type="line"/>
      <point x="200" y="32" type="line"/>
    </contour>
    <contour>
      <point x="372" y="683" type="line"/>
      <point x="414" y="680" type="line"/>
      <point x="450" y="817" type="line"/>
      <point x="408" y="817" type="line"/>
    </contour>
  </outline>
</glyph>
<glyph name="f_b" format="2">
  <advance width="1064"/>
  <outline>
    <contour>
      <point x="81" y="565" type="line"/>
      <point x="73" y="526" type="line"/>
      <point x="417" y="526" type="line"/>
      <point x="425" y="565" type="line"/>
    </contour>
    <contour>
      <point x="701" y="-12" type="curve" smooth="yes"/>
      <point x="925" y="-12"/>
      <point x="1018" y="212"/>
      <point x="1018" y="382" type="curve" smooth="yes"/>
      <point x="1018" y="509"/>
      <point x="955" y="576"/>
      <point x="840" y="576" type="curve" smooth="yes"/>
      <point x="747" y="576"/>
      <point x="669" y="519"/>
      <point x="585" y="435" type="curve"/>
      <point x="579" y="391" type="line"/>
      <point x="658" y="465"/>
      <point x="741" y="536"/>
      <point x="839" y="536" type="curve" smooth="yes"/>
      <point x="923" y="536"/>
      <point x="962" y="479"/>
      <point x="962" y="382" type="curve" smooth="yes"/>
      <point x="962" y="246"/>
      <point x="903" y="28"/>
      <point x="703" y="28" type="curve" smooth="yes"/>
      <point x="588" y="28"/>
      <point x="524" y="82"/>
      <point x="497" y="104" type="curve"/>
      <point x="475" y="133"/>
      <point x="491" y="91"/>
      <point x="510" y="93" type="curve"/>
      <point x="693" y="780" type="line"/>
      <point x="501" y="780" type="line"/>
      <point x="631" y="745" type="line"/>
      <point x="456" y="75" type="line"/>
      <point x="508" y="36"/>
      <point x="586" y="-12"/>
    </contour>
    <contour>
      <point x="439" y="754" type="curve" smooth="yes"/>
      <point x="509" y="754"/>
      <point x="604" y="734"/>
      <point x="644" y="721" type="curve"/>
      <point x="653" y="753" type="line"/>
      <point x="615" y="765"/>
      <point x="530" y="790"/>
      <point x="443" y="790" type="curve" smooth="yes"/>
      <point x="305" y="790"/>
      <point x="241" y="745"/>
      <point x="225" y="665" type="curve" smooth="yes"/>
      <point x="56" y="-223" type="line"/>
      <point x="99" y="-223" type="line"/>
      <point x="279" y="660" type="line" smooth="yes"/>
      <point x="291" y="721"/>
      <point x="331" y="754"/>
    </contour>
  </outline>
</glyph>
<glyph name="f_f_h" format="2">
  <advance width="1414"/>
  <outline>
    <contour>
      <point x="81" y="565" type="line"/>
      <point x="73" y="526" type="line"/>
      <point x="462" y="526" type="line"/>
      <point x="469" y="565" type="line"/>
    </contour>
    <contour>
      <point x="436" y="565" type="line"/>
      <point x="428" y="526" type="line"/>
      <point x="772" y="526" type="line"/>
      <point x="780" y="565" type="line"/>
    </contour>
    <contour>
      <point x="380" y="733" type="curve" smooth="yes"/>
      <point x="413" y="733"/>
      <point x="444" y="727"/>
      <point x="471" y="722" type="curve"/>
      <point x="480" y="764" type="line"/>
      <point x="459" y="769"/>
      <point x="425" y="775"/>
      <point x="384" y="775" type="curve" smooth="yes"/>
      <point x="291" y="775"/>
      <point x="240" y="740"/>
      <point x="222" y="650" type="curve" smooth="yes"/>
      <point x="56" y="-223" type="line"/>
      <point x="99" y="-223" type="line"/>
      <point x="276" y="645" type="line" smooth="yes"/>
      <point x="290" y="716"/>
      <point x="318" y="733"/>
    </contour>
    <contour>
      <point x="842" y="0" type="line"/>
      <point x="1049" y="780" type="line"/>
      <point x="835" y="780" type="line"/>
      <point x="987" y="740" type="line"/>
      <point x="792" y="0" type="line"/>
    </contour>
    <contour>
      <point x="1195" y="160" type="line" smooth="yes"/>
      <point x="1179" y="117"/>
      <point x="1167" y="82"/>
      <point x="1167" y="51" type="curve" smooth="yes"/>
      <point x="1167" y="16"/>
      <point x="1196" y="0"/>
      <point x="1239" y="0" type="curve" smooth="yes"/>
      <point x="1272" y="0"/>
      <point x="1304" y="0"/>
      <point x="1337" y="0" type="curve"/>
      <point x="1345" y="40" type="line"/>
      <point x="1316" y="40"/>
      <point x="1286" y="40"/>
      <point x="1257" y="40" type="curve" smooth="yes"/>
      <point x="1235" y="40"/>
      <point x="1222" y="48"/>
      <point x="1222" y="67" type="curve" smooth="yes"/>
      <point x="1222" y="80"/>
      <point x="1223" y="88"/>
      <point x="1238" y="126" type="curve" smooth="yes"/>
      <point x="1307" y="379" type="line" smooth="yes"/>
      <point x="1321" y="430"/>
      <point x="1330" y="464"/>
      <point x="1330" y="496" type="curve" smooth="yes"/>
      <point x="1330" y="541"/>
      <point x="1303" y="575"/>
      <point x="1221" y="575" type="curve" smooth="yes"/>
      <point x="1115" y="575"/>
      <point x="1019" y="483"/>
      <point x="913" y="367" type="curve"/>
      <point x="925" y="345" type="line"/>
      <point x="1038" y="465"/>
      <point x="1120" y="532"/>
      <point x="1205" y="532" type="curve" smooth="yes"/>
      <point x="1257" y="532"/>
      <point x="1276" y="516"/>
      <point x="1276" y="483" type="curve" smooth="yes"/>
      <point x="1276" y="458"/>
      <point x="1270" y="430"/>
      <point x="1257" y="382" type="curve" smooth="yes"/>
    </contour>
    <contour>
      <point x="795" y="754" type="curve" smooth="yes"/>
      <point x="864" y="754"/>
      <point x="960" y="734"/>
      <point x="999" y="721" type="curve"/>
      <point x="1008" y="753" type="line"/>
      <point x="970" y="765"/>
      <point x="885" y="790"/>
      <point x="798" y="790" type="curve" smooth="yes"/>
      <point x="660" y="790"/>
      <point x="596" y="745"/>
      <point x="580" y="665" type="curve" smooth="yes"/>
      <point x="412" y="-223" type="line"/>
      <point x="454" y="-223" type="line"/>
      <point x="634" y="660" type="line" smooth="yes"/>
      <point x="646" y="721"/>
      <point x="686" y="754"/>
    </contour>
  </outline>
</glyph>
<glyph name="f_f_k.alt" format="2">
  <advance width="1322"/>
  <outline>
    <contour>
      <point x="436" y="565" type="line"/>
      <point x="428" y="526" type="line"/>
      <point x="772" y="526" type="line"/>
      <point x="780" y="565" type="line"/>
    </contour>
    <contour>
      <point x="454" y="-223" type="line"/>
      <point x="634" y="660" type="line" smooth="yes"/>
      <point x="646" y="721"/>
      <point x="686" y="754"/>
      <point x="795" y="754" type="curve" smooth="yes"/>
      <point x="864" y="754"/>
      <point x="960" y="734"/>
      <point x="999" y="721" type="curve"/>
      <point x="1008" y="753" type="line"/>
      <point x="970" y="765"/>
      <point x="885" y="790"/>
      <point x="798" y="790" type="curve" smooth="yes"/>
      <point x="660" y="790"/>
      <point x="596" y="745"/>
      <point x="580" y="665" type="curve" smooth="yes"/>
      <point x="416" y="-223" type="line"/>
    </contour>
    <contour>
      <point x="841" y="0" type="line"/>
      <point x="1047" y="780" type="line"/>
      <point x="867" y="780" type="line"/>
      <point x="987" y="745" type="line"/>
      <point x="792" y="0" type="line"/>
    </contour>
    <contour>
      <point x="1196" y="0" type="curve" smooth="yes"/>
      <point x="1143" y="0"/>
      <point x="1131" y="12"/>
      <point x="1103" y="67" type="curve"/>
      <point x="981" y="304" type="line"/>
      <point x="982" y="309" type="line"/>
      <point x="1076" y="395"/>
      <point x="1169" y="479"/>
      <point x="1263" y="565" type="curve"/>
      <point x="1325" y="565" type="line"/>
      <point x="1325" y="550" type="line"/>
      <point x="1224" y="470"/>
      <point x="1124" y="391"/>
      <point x="1024" y="311" type="curve"/>
      <point x="1022" y="324" type="line"/>
      <point x="1157" y="62" type="line" smooth="yes"/>
      <point x="1165" y="45"/>
      <point x="1175" y="40"/>
      <point x="1200" y="40" type="curve" smooth="yes"/>
      <point x="1221" y="40"/>
      <point x="1243" y="40"/>
      <point x="1264" y="40" type="curve"/>
      <point x="1260" y="0" type="line"/>
      <point x="1239" y="0"/>
      <point x="1218" y="0"/>
    </contour>
    <contour>
      <point x="81" y="565" type="line"/>
      <point x="73" y="526" type="line"/>
      <point x="456" y="526" type="line"/>
      <point x="464" y="565" type="line"/>
    </contour>
    <contour>
      <point x="651" y="732" type="line"/>
      <point x="631" y="742"/>
      <point x="550" y="775"/>
      <point x="449" y="775" type="curve" smooth="yes"/>
      <point x="301" y="775"/>
      <point x="237" y="725"/>
      <point x="221" y="641" type="curve" smooth="yes"/>
      <point x="56" y="-223" type="line"/>
      <point x="99" y="-223" type="line"/>
      <point x="274" y="638" type="line" smooth="yes"/>
      <point x="290" y="712"/>
      <point x="329" y="742"/>
      <point x="447" y="742" type="curve" smooth="yes"/>
      <point x="541" y="742"/>
      <point x="602" y="718"/>
      <point x="633" y="702" type="curve"/>
      <point x="630" y="728"/>
      <point x="617" y="741"/>
      <point x="596" y="749" type="curve"/>
      <point x="577" y="645" type="line"/>
      <point x="627" y="643" type="line"/>
    </contour>
  </outline>
</glyph>
<glyph name="five.linprop" format="2">
  <advance width="578"/>
  <outline>
    <contour>
      <point x="229" y="-11" type="curve" smooth="yes"/>
      <point x="397" y="-11"/>
      <point x="500" y="125"/>
      <point x="500" y="288" type="curve" smooth="yes"/>
      <point x="500" y="396"/>
      <point x="433" y="472"/>
      <point x="314" y="472" type="curve" smooth="yes"/>
      <point x="230" y="472"/>
      <point x="169" y="418"/>
      <point x="114" y="347" type="curve"/>
      <point x="126" y="353" type="line"/>
      <point x="215" y="690" type="line"/>
      <point x="195" y="666" type="line"/>
      <point x="530" y="666" type="line"/>
      <point x="557" y="710" type="line"/>
      <point x="180" y="710" type="line"/>
      <point x="83" y="337" type="line"/>
      <point x="135" y="337" type="line"/>
      <point x="180" y="388"/>
      <point x="219" y="432"/>
      <point x="308" y="432" type="curve" smooth="yes"/>
      <point x="380" y="432"/>
      <point x="446" y="385"/>
      <point x="446" y="285" type="curve" smooth="yes"/>
      <point x="446" y="162"/>
      <point x="378" y="30"/>
      <point x="233" y="30" type="curve" smooth="yes"/>
      <point x="111" y="30"/>
      <point x="54" y="83"/>
      <point x="24" y="156" type="curve"/>
      <point x="-25" y="142" type="line"/>
      <point x="5" y="66"/>
      <point x="72" y="-11"/>
    </contour>
  </outline>
</glyph>
<glyph name="four.lintab" format="2">
  <advance width="594"/>
  <outline>
    <contour>
      <point x="11" y="225" type="line"/>
      <point x="537" y="225" type="line"/>
      <point x="548" y="263" type="line"/>
      <point x="52" y="263" type="line"/>
      <point x="46" y="244" type="line"/>
      <point x="491" y="708" type="line"/>
      <point x="488" y="710" type="line"/>
      <point x="446" y="710" type="line"/>
      <point x="25" y="273" type="line"/>
    </contour>
    <contour>
      <point x="360" y="72" type="curve" smooth="yes"/>
      <point x="528" y="710" type="line"/>
      <point x="463" y="710" type="line"/>
      <point x="476" y="698" type="line"/>
      <point x="311" y="72" type="line" smooth="yes"/>
      <point x="303" y="43"/>
      <point x="263" y="36"/>
      <point x="211" y="36" type="curve" smooth="yes"/>
      <point x="186" y="36" type="line"/>
      <point x="175" y="0" type="line"/>
      <point x="450" y="0" type="line"/>
      <point x="461" y="36" type="line"/>
      <point x="440" y="36" type="line" smooth="yes"/>
      <point x="388" y="36"/>
      <point x="352" y="43"/>
    </contour>
  </outline>
</glyph>
<glyph name="franc.proportional" format="2">
  <advance width="661"/>
  <outline>
    <contour>
      <point x="-7" y="0" type="line"/>
      <point x="264" y="0" type="line"/>
      <point x="277" y="45" type="line"/>
      <point x="256" y="45" type="line" smooth="yes"/>
      <point x="205" y="45"/>
      <point x="155" y="48"/>
      <point x="158" y="55" type="curve" smooth="yes"/>
      <point x="321" y="674" type="line"/>
      <point x="492" y="674" type="line" smooth="yes"/>
      <point x="583" y="674"/>
      <point x="617" y="665"/>
      <point x="613" y="629" type="curve" smooth="yes"/>
      <point x="602" y="525" type="line"/>
      <point x="645" y="525" type="line"/>
      <point x="691" y="710" type="line"/>
      <point x="182" y="710" type="line"/>
      <point x="169" y="666" type="line"/>
      <point x="181" y="666" type="line" smooth="yes"/>
      <point x="233" y="666"/>
      <point x="269" y="659"/>
      <point x="262" y="630" type="curve" smooth="yes"/>
      <point x="117" y="80" type="line" smooth="yes"/>
      <point x="109" y="51"/>
      <point x="69" y="44"/>
      <point x="17" y="44" type="curve" smooth="yes"/>
      <point x="5" y="44" type="line"/>
    </contour>
    <contour>
      <point x="236" y="415" type="curve"/>
      <point x="227" y="386" type="line"/>
      <point x="321" y="383"/>
      <point x="416" y="379"/>
      <point x="510" y="375" type="curve"/>
      <point x="525" y="424" type="line"/>
      <point x="429" y="421"/>
      <point x="332" y="418"/>
    </contour>
    <contour>
      <point x="54" y="240" type="line"/>
      <point x="43" y="205" type="line"/>
      <point x="423" y="205" type="line"/>
      <point x="433" y="240" type="line"/>
    </contour>
  </outline>
</glyph>
<glyph name="guarani.proportional" format="2">
  <advance width="708"/>
  <outline>
    <contour>
      <point x="453" y="790" type="line"/>
      <point x="427" y="695" type="line"/>
      <point x="427" y="685" type="line"/>
      <point x="255" y="32" type="line"/>
      <point x="251" y="21" type="line"/>
      <point x="214" y="-120" type="line"/>
      <point x="254" y="-120" type="line"/>
      <point x="292" y="22" type="line"/>
      <point x="292" y="32" type="line"/>
      <point x="463" y="681" type="line"/>
      <point x="469" y="699" type="line"/>
      <point x="494" y="790" type="line"/>
    </contour>
    <contour>
      <point x="551" y="287" type="curve" smooth="yes"/>
      <point x="502" y="97" type="line"/>
      <point x="482" y="85"/>
      <point x="432" y="45"/>
      <point x="338" y="45" type="curve" smooth="yes"/>
      <point x="179" y="45"/>
      <point x="101" y="143"/>
      <point x="101" y="293" type="curve" smooth="yes"/>
      <point x="101" y="479"/>
      <point x="200" y="665"/>
      <point x="424" y="665" type="curve" smooth="yes"/>
      <point x="493" y="665"/>
      <point x="604" y="646"/>
      <point x="637" y="621" type="curve"/>
      <point x="620" y="645"/>
      <point x="621" y="642"/>
      <point x="616" y="652" type="curve"/>
      <point x="580" y="516" type="line"/>
      <point x="629" y="516" type="line"/>
      <point x="665" y="652" type="line"/>
      <point x="608" y="680"/>
      <point x="541" y="700"/>
      <point x="426" y="700" type="curve" smooth="yes"/>
      <point x="187" y="700"/>
      <point x="52" y="510"/>
      <point x="52" y="291" type="curve" smooth="yes"/>
      <point x="52" y="123"/>
      <point x="155" y="10"/>
      <point x="334" y="10" type="curve" smooth="yes"/>
      <point x="420" y="10"/>
      <point x="498" y="51"/>
      <point x="539" y="80" type="curve"/>
      <point x="594" y="287" type="line" smooth="yes"/>
      <point x="601" y="316"/>
      <point x="627" y="323"/>
      <point x="660" y="323" type="curve" smooth="yes"/>
      <point x="672" y="323" type="line"/>
      <point x="682" y="358" type="line"/>
      <point x="502" y="358" type="line"/>
      <point x="492" y="323" type="line"/>
      <point x="507" y="323" type="line" smooth="yes"/>
      <point x="549" y="323"/>
      <point x="556" y="307"/>
    </contour>
  </outline>
</glyph>
<glyph name="liraTurkish" format="2">
  <advance width="594"/>
  <outline>
    <contour>
      <point x="21" y="230" type="line"/>
      <point x="10" y="191" type="line"/>
      <point x="475" y="381" type="line"/>
      <point x="486" y="419" type="line"/>
    </contour>
    <contour>
      <point x="71" y="419" type="line"/>
      <point x="59" y="380" type="line"/>
      <point x="525" y="570" type="line"/>
      <point x="536" y="609" type="line"/>
    </contour>
    <contour>
      <point x="261" y="35" type="curve" smooth="yes"/>
      <point x="126" y="35" type="line"/>
      <point x="282" y="638" type="line" smooth="yes"/>
      <point x="290" y="667"/>
      <point x="331" y="674"/>
      <point x="375" y="674" type="curve" smooth="yes"/>
      <point x="382" y="674" type="line"/>
      <point x="393" y="710" type="line"/>
      <point x="154" y="710" type="line"/>
      <point x="143" y="674" type="line"/>
      <point x="158" y="674" type="line" smooth="yes"/>
      <point x="210" y="674"/>
      <point x="243" y="667"/>
      <point x="235" y="638" type="curve" smooth="yes"/>
      <point x="88" y="72" type="line" smooth="yes"/>
      <point x="81" y="43"/>
      <point x="44" y="36"/>
      <point x="-8" y="36" type="curve" smooth="yes"/>
      <point x="-23" y="36" type="line"/>
      <point x="-34" y="0" type="line"/>
      <point x="209" y="0" type="line" smooth="yes"/>
      <point x="431" y="0"/>
      <point x="505" y="85"/>
      <point x="555" y="254" type="curve"/>
      <point x="507" y="261" type="line"/>
      <point x="467" y="127"/>
      <point x="420" y="35"/>
    </contour>
  </outline>
</glyph>
<glyph name="one.linprop" format="2">
  <advance width="506"/>
  <outline>
    <contour>
      <point x="237" y="72" type="curve" smooth="yes"/>
      <point x="406" y="710" type="line"/>
      <point x="365" y="710" type="line"/>
      <point x="315" y="623"/>
      <point x="251" y="600"/>
      <point x="152" y="597" type="curve"/>
      <point x="139" y="555" type="line"/>
      <point x="229" y="555"/>
      <point x="324" y="594"/>
      <point x="359" y="665" type="curve"/>
      <point x="342" y="654" type="line"/>
      <point x="188" y="72" type="line" smooth="yes"/>
      <point x="181" y="43"/>
      <point x="136" y="36"/>
      <point x="56" y="36" type="curve" smooth="yes"/>
      <point x="19" y="36" type="line"/>
      <point x="9" y="0" type="line"/>
      <point x="368" y="0" type="line"/>
      <point x="378" y="36" type="line"/>
      <point x="361" y="36" type="line" smooth="yes"/>
      <point x="274" y="36"/>
      <point x="230" y="43"/>
    </contour>
  </outline>
</glyph>
<glyph name="one.oldtab" format="2">
  <advance width="594"/>
  <outline>
    <contour>
      <point x="300" y="70" type="curve" smooth="yes"/>
      <point x="451" y="657" type="line"/>
      <point x="410" y="657" type="line"/>
      <point x="361" y="576"/>
      <point x="298" y="554"/>
      <point x="168" y="551" type="curve"/>
      <point x="156" y="509" type="line"/>
      <point x="276" y="509"/>
      <point x="369" y="547"/>
      <point x="404" y="615" type="curve"/>
      <point x="387" y="601" type="line"/>
      <point x="251" y="70" type="line" smooth="yes"/>
      <point x="243" y="41"/>
      <point x="199" y="34"/>
      <point x="118" y="34" type="curve" smooth="yes"/>
      <point x="52" y="34" type="line"/>
      <point x="42" y="0" type="line"/>
      <point x="455" y="0" type="line"/>
      <point x="466" y="34" type="line"/>
      <point x="424" y="34" type="line"/>
      <point x="337" y="34"/>
      <point x="292" y="41"/>
    </contour>
  </outline>
</glyph>
<glyph name="seven.lintab" format="2">
  <advance width="594"/>
  <outline>
    <contour>
      <point x="318" y="673" type="line" smooth="yes"/>
      <point x="226" y="673"/>
      <point x="187" y="666"/>
      <point x="174" y="630" type="curve" smooth="yes"/>
      <point x="133" y="510" type="line"/>
      <point x="86" y="510" type="line"/>
      <point x="139" y="710" type="line"/>
      <point x="628" y="710" type="line"/>
      <point x="614" y="667" type="line"/>
      <point x="431" y="514"/>
      <point x="272" y="313"/>
      <point x="194" y="0" type="curve"/>
      <point x="134" y="0" type="line"/>
      <point x="224" y="336"/>
      <point x="425" y="544"/>
      <point x="594" y="692" type="curve"/>
      <point x="597" y="673" type="line"/>
    </contour>
  </outline>
</glyph>
<glyph name="six.linprop" format="2">
  <advance width="594"/>
  <outline>
    <contour>
      <point x="591" y="700" type="line"/>
      <point x="384" y="697"/>
      <point x="237" y="609"/>
      <point x="158" y="474" type="curve" smooth="yes"/>
      <point x="112" y="401"/>
      <point x="88" y="313"/>
      <point x="88" y="216" type="curve" smooth="yes"/>
      <point x="88" y="98"/>
      <point x="154" y="31"/>
      <point x="267" y="31" type="curve" smooth="yes"/>
      <point x="367" y="31"/>
      <point x="428" y="91"/>
      <point x="456" y="172" type="curve" smooth="yes"/>
      <point x="469" y="207"/>
      <point x="474" y="247"/>
      <point x="474" y="287" type="curve" smooth="yes"/>
      <point x="474" y="361"/>
      <point x="433" y="428"/>
      <point x="335" y="428" type="curve" smooth="yes"/>
      <point x="227" y="428"/>
      <point x="173" y="370"/>
      <point x="73" y="227" type="curve"/>
      <point x="76" y="268" type="line"/>
      <point x="155" y="406"/>
      <point x="238" y="468"/>
      <point x="341" y="468" type="curve" smooth="yes"/>
      <point x="465" y="468"/>
      <point x="528" y="389"/>
      <point x="528" y="284" type="curve" smooth="yes"/>
      <point x="528" y="129"/>
      <point x="435" y="-10"/>
      <point x="263" y="-10" type="curve" smooth="yes"/>
      <point x="122" y="-10"/>
      <point x="37" y="66"/>
      <point x="37" y="212" type="curve" smooth="yes"/>
      <point x="37" y="481"/>
      <point x="226" y="732"/>
      <point x="586" y="740" type="curve"/>
    </contour>
  </outline>
</glyph>
<glyph name="six.oldtab" format="2">
  <advance width="594"/>
  <outline>
    <contour>
      <point x="261" y="-10" type="curve" smooth="yes"/>
      <point x="433" y="-10"/>
      <point x="525" y="164"/>
      <point x="525" y="298" type="curve" smooth="yes"/>
      <point x="525" y="404"/>
      <point x="460" y="468"/>
      <point x="350" y="468" type="curve" smooth="yes"/>
      <point x="257" y="468"/>
      <point x="175" y="402"/>
      <point x="91" y="278" type="curve"/>
      <point x="86" y="234" type="line"/>
      <point x="187" y="362"/>
      <point x="241" y="428"/>
      <point x="338" y="428" type="curve" smooth="yes"/>
      <point x="433" y="428"/>
      <point x="471" y="376"/>
      <point x="471" y="300" type="curve" smooth="yes"/>
      <point x="471" y="245"/>
      <point x="455" y="176"/>
      <point x="423" y="119" type="curve" smooth="yes"/>
      <point x="389" y="70"/>
      <point x="337" y="31"/>
      <point x="265" y="31" type="curve" smooth="yes"/>
      <point x="167" y="31"/>
      <point x="100" y="80"/>
      <point x="100" y="217" type="curve" smooth="yes"/>
      <point x="100" y="318"/>
      <point x="120" y="410"/>
      <point x="158" y="486" type="curve" smooth="yes"/>
      <point x="230" y="622"/>
      <point x="367" y="704"/>
      <point x="575" y="701" type="curve"/>
      <point x="577" y="740" type="line"/>
      <point x="202" y="744"/>
      <point x="49" y="471"/>
      <point x="49" y="213" type="curve" smooth="yes"/>
      <point x="49" y="65"/>
      <point x="125" y="-10"/>
    </contour>
  </outline>
</glyph>
<glyph name="three.oldtab" format="2">
  <advance width="594"/>
  <outline>
    <contour>
      <point x="245" y="-72" type="curve" smooth="yes"/>
      <point x="408" y="-72"/>
      <point x="498" y="30"/>
      <point x="498" y="142" type="curve" smooth="yes"/>
      <point x="498" y="228"/>
      <point x="447" y="285"/>
      <point x="317" y="307" type="curve"/>
      <point x="317" y="292" type="line"/>
      <point x="326" y="322" type="line"/>
      <point x="315" y="311" type="line"/>
      <point x="453" y="316"/>
      <point x="549" y="378"/>
      <point x="549" y="513" type="curve" smooth="yes"/>
      <point x="549" y="604"/>
      <point x="472" y="667"/>
      <point x="345" y="667" type="curve" smooth="yes"/>
      <point x="271" y="667"/>
      <point x="202" y="641"/>
      <point x="175" y="629" type="curve"/>
      <point x="131" y="461" type="line"/>
      <point x="188" y="461" type="line"/>
      <point x="228" y="606" type="line"/>
      <point x="197" y="602"/>
      <point x="175" y="587"/>
      <point x="186" y="589" type="curve"/>
      <point x="205" y="597"/>
      <point x="262" y="626"/>
      <point x="342" y="626" type="curve" smooth="yes"/>
      <point x="438" y="626"/>
      <point x="496" y="588"/>
      <point x="496" y="516" type="curve" smooth="yes"/>
      <point x="496" y="381"/>
      <point x="410" y="328"/>
      <point x="271" y="328" type="curve"/>
      <point x="185" y="328" type="line"/>
      <point x="174" y="290" type="line"/>
      <point x="255" y="290" type="line" smooth="yes"/>
      <point x="381" y="290"/>
      <point x="440" y="239"/>
      <point x="440" y="142" type="curve" smooth="yes"/>
      <point x="440" y="36"/>
      <point x="368" y="-32"/>
      <point x="248" y="-32" type="curve" smooth="yes"/>
      <point x="113" y="-32"/>
      <point x="71" y="36"/>
      <point x="49" y="110" type="curve"/>
      <point x="-1" y="97" type="line"/>
      <point x="20" y="6"/>
      <point x="94" y="-72"/>
    </contour>
  </outline>
</glyph>
<glyph name="two.midprop" format="2">
  <advance width="597"/>
  <outline>
    <contour>
      <point x="281" y="33" type="line" smooth="yes"/>
      <point x="368" y="33"/>
      <point x="404" y="40"/>
      <point x="417" y="74" type="curve" smooth="yes"/>
      <point x="455" y="182" type="line"/>
      <point x="502" y="182" type="line"/>
      <point x="455" y="0" type="line"/>
      <point x="-52" y="0" type="line"/>
      <point x="-39" y="41" type="line"/>
      <point x="338" y="287"/>
      <point x="497" y="359"/>
      <point x="497" y="524" type="curve" smooth="yes"/>
      <point x="497" y="611"/>
      <point x="441" y="649"/>
      <point x="341" y="649" type="curve" smooth="yes"/>
      <point x="257" y="649"/>
      <point x="206" y="629"/>
      <point x="167" y="603" type="curve"/>
      <point x="180" y="628"/>
      <point x="207" y="642"/>
      <point x="209" y="633" type="curve"/>
      <point x="167" y="470" type="line"/>
      <point x="103" y="470" type="line"/>
      <point x="148" y="639" type="line"/>
      <point x="187" y="665"/>
      <point x="261" y="693"/>
      <point x="341" y="693" type="curve" smooth="yes"/>
      <point x="469" y="693"/>
      <point x="554" y="647"/>
      <point x="554" y="525" type="curve" smooth="yes"/>
      <point x="554" y="332"/>
      <point x="313" y="229"/>
      <point x="-6" y="19" type="curve"/>
      <point x="-12" y="33" type="line"/>
    </contour>
  </outline>
</glyph>
<glyph name="uni20B8.proportional" format="2">
  <advance width="651"/>
  <outline>
    <contour>
      <point x="220" y="72" type="line" smooth="yes"/>
      <point x="213" y="43"/>
      <point x="167" y="36"/>
      <point x="116" y="36" type="curve" smooth="yes"/>
      <point x="95" y="36" type="line"/>
      <point x="84" y="0" type="line"/>
      <point x="365" y="0" type="line"/>
      <point x="375" y="36" type="line"/>
      <point x="354" y="36" type="line" smooth="yes"/>
      <point x="302" y="36"/>
      <point x="261" y="43"/>
      <point x="268" y="72" type="curve" smooth="yes"/>
      <point x="379" y="504" type="line"/>
      <point x="443" y="504" type="line" smooth="yes"/>
      <point x="533" y="504"/>
      <point x="564" y="487"/>
      <point x="559" y="451" type="curve" smooth="yes"/>
      <point x="541" y="329" type="line"/>
      <point x="578" y="329" type="line"/>
      <point x="634" y="540" type="line"/>
      <point x="97" y="540" type="line"/>
      <point x="42" y="329" type="line"/>
      <point x="78" y="329" type="line"/>
      <point x="125" y="451" type="line" smooth="yes"/>
      <point x="139" y="487"/>
      <point x="180" y="504"/>
      <point x="270" y="504" type="curve" smooth="yes"/>
      <point x="332" y="504" type="line"/>
    </contour>
    <contour>
      <point x="148" y="728" type="line"/>
      <point x="138" y="692" type="line"/>
      <point x="674" y="692" type="line"/>
      <point x="684" y="728" type="line"/>
    </contour>
  </outline>
</glyph>
<glyph name="whitesquare" format="2">
  <advance width="623"/>
  <outline>
    <contour>
      <point x="90" y="104" type="line"/>
      <point x="533" y="104" type="line"/>
      <point x="533" y="522" type="line"/>
      <point x="90" y="522" type="line"/>
    </contour>
    <contour>
      <point x="148" y="159" type="line"/>
      <point x="148" y="467" type="line"/>
      <point x="475" y="467" type="line"/>
      <point x="475" y="159" type="line"/>
    </contour>
  </outline>
</glyph>
<glyph name="zero.oldprop" format="2">
  <advance width="612"/>
  <outline>
    <contour>
      <point x="356" y="629" type="curve" smooth="yes"/>
      <point x="469" y="629"/>
      <point x="516" y="551"/>
      <point x="516" y="439" type="curve" smooth="yes"/>
      <point x="516" y="395"/>
      <point x="512" y="351"/>
      <point x="499" y="296" type="curve" smooth="yes"/>
      <point x="459" y="125"/>
      <point x="376" y="28"/>
      <point x="256" y="28" type="curve" smooth="yes"/>
      <point x="143" y="28"/>
      <point x="95" y="105"/>
      <point x="95" y="217" type="curve" smooth="yes"/>
      <point x="95" y="261"/>
      <point x="100" y="305"/>
      <point x="112" y="360" type="curve" smooth="yes"/>
      <point x="152" y="531"/>
      <point x="236" y="629"/>
    </contour>
    <contour>
      <point x="359" y="667" type="curve" smooth="yes"/>
      <point x="157" y="667"/>
      <point x="42" y="439"/>
      <point x="42" y="219" type="curve" smooth="yes"/>
      <point x="42" y="83"/>
      <point x="115" y="-11"/>
      <point x="253" y="-11" type="curve" smooth="yes"/>
      <point x="454" y="-11"/>
      <point x="570" y="217"/>
      <point x="570" y="437" type="curve" smooth="yes"/>
      <point x="570" y="573"/>
      <point x="497" y="667"/>
    </contour>
  </outline>
</glyph>
